<svg xmlns="http://www.w3.org/2000/svg" width="229.701" height="283.179" viewBox="0 0 229.701 283.179">
  <g id="Group_5" data-name="Group 5" transform="translate(-360.592 654.799)">
    <g id="Group_2" data-name="Group 2" transform="translate(367.539 -654.799)">
      <path id="Path_4" data-name="Path 4" d="M500.476-438.971v-6.084c11.528,0,13.77-.64,17.615-2.881,2.56-1.283,4.483-4.8,4.483-7.686,0-4.8-2.244-13.448-6.087-22.414l-13.13-30.1h-83.9L404.73-471.633a42.372,42.372,0,0,0-2.881,13.448c0,9.927,7.045,13.13,22.417,13.13v6.084H360.539v-6.084c18.574-1.92,21.455-8.647,40.348-53.475L466.852-654.8h6.405l78.773,180.285c8.966,20.813,13.449,27.54,30.1,29.46v6.084ZM461.729-609.328l-36.824,88.06h73.969Z" transform="translate(-360.539 654.799)" fill="#ee4f1a"/>
    </g>
    <g id="Group_4" data-name="Group 4" transform="translate(360.592 -412.284)">
      <g id="Group_3" data-name="Group 3">
        <path id="Path_5" data-name="Path 5" d="M384.325-528.205c-1.76,2.231-3.283,2.819-5.279,2.819-2.171,0-3.464-1.175-3.755-4.284h-.06c-3.11,3.519-5.986,4.284-8.506,4.284-3.639,0-6.164-2.231-6.164-6.1a8.282,8.282,0,0,1,4.109-6.865c1.76-1.172,3.933-2.289,10.562-4.751v-3.17c0-3.637-1.935-5.278-4.576-5.278-2.349,0-4.109,1.29-4.109,2.874,0,1.057.354,1.232.354,2.465a2.693,2.693,0,0,1-2.7,2.4,2.66,2.66,0,0,1-2.525-2.7,5.833,5.833,0,0,1,2.992-4.694,12.9,12.9,0,0,1,6.749-1.762c3.283,0,5.514.939,6.923,2.64s1.644,2.934,1.644,6.514v11.207c0,2.7.76,3.873,1.817,3.873a3.586,3.586,0,0,0,2.523-1.115ZM375.231-541.7c-3.637,1.29-6.044,2.523-7.51,3.87a5.7,5.7,0,0,0-2,4.521c0,3.11,1.759,4.518,4.049,4.518a6.347,6.347,0,0,0,3.4-.939c1.7-1.175,2.053-2,2.053-3.7Z" transform="translate(-360.56 566.051)" fill="#c3c3c3"/>
        <path id="Path_6" data-name="Path 6" d="M378.95-540.165a8.375,8.375,0,0,1,7.921-4.93c6.278,0,10.562,5.632,10.562,12.909,0,8.685-5.986,14.671-13.73,14.671-4.754,0-9.684-1.88-9.684-3.873v-29.924c0-2.934-.469-3.4-2.874-3.4a4.587,4.587,0,0,0-1,.118v-1l1.762-.527c2.756-.821,4.284-1.175,6.747-2.056l.294.118Zm0,17.721c0,1.878,2.64,3.05,5.693,3.05a6.663,6.663,0,0,0,5.457-2.523c1.406-1.759,2.169-4.342,2.169-7.743,0-3.521-.821-6.925-2.287-8.978a6.274,6.274,0,0,0-5.223-2.758c-3.11,0-5.808,2.171-5.808,4.636Z" transform="translate(-346.084 558.179)" fill="#c3c3c3"/>
        <path id="Path_7" data-name="Path 7" d="M395.222-539.976c3.755,2.289,5.163,3.873,5.163,7.216,0,3.933-3.755,7.337-8.213,7.337a13.836,13.836,0,0,1-4.284-.529,7.67,7.67,0,0,0-2.7-.527,1.339,1.339,0,0,0-1.408.7h-.766v-9.212h.939c1.235,5.693,3.406,8.273,7.455,8.273,2.992,0,4.869-1.935,4.869-4.342,0-1.817-1.172-3.343-3.11-4.4L390-537.217c-4.872-2.7-7.04-5.514-7.04-8.509,0-4.636,3.283-7.216,8.095-7.216a8.82,8.82,0,0,1,3.933.645,4.415,4.415,0,0,0,1.642.469c.236,0,.469-.058.939-.587h.645l.294,7.979h-.878c-1.35-5.279-3.112-7.216-6.631-7.216-2.523,0-4.4,1.232-4.4,3.991a5.061,5.061,0,0,0,2.523,3.991Z" transform="translate(-326.735 566.087)" fill="#c3c3c3"/>
        <path id="Path_8" data-name="Path 8" d="M406.587-525.646c-1.935,3.05-4.164,4.46-7.1,4.46-3.4,0-5.165-2.525-5.165-7.452V-546.3h-3.107a.441.441,0,0,1-.236-.409c0-.354.354-.705,1-1.117,1.524-.879,3.461-3.05,5.69-6.278.351-.527.823-1.057,1.175-1.644.291,0,.409.178.409.765v6.8h5.929v1.878h-5.929v16.782c0,3.755.881,5.281,3.052,5.281,1.29,0,2.229-.53,3.519-2.053Z" transform="translate(-314.626 561.85)" fill="#c3c3c3"/>
        <path id="Path_9" data-name="Path 9" d="M421.172-535.185c-2.287,6.4-6.4,9.8-12.264,9.8-6.923,0-11.147-5.223-11.147-13.32,0-8.273,4.751-14.259,12.146-14.259a9.367,9.367,0,0,1,8.157,4.051c1.17,1.641,1.759,3.519,1.993,6.689H401.985c.291,4.458.587,6.747,2.7,9.563a7.749,7.749,0,0,0,6.513,3.225c3.933,0,6.16-1.817,9.036-6.16Zm-7.1-8.918c-.648-4.754-1.877-6.75-5.75-6.75-3.288,0-5.575,2.347-6.22,6.75Z" transform="translate(-304.387 566.051)" fill="#c3c3c3"/>
        <path id="Path_10" data-name="Path 10" d="M439.673-525.974v-.881c3.288-.351,3.815-1,3.815-4.4v-12.088c0-4.634-1.172-6.571-4.518-6.571-2.758,0-4.518,1.057-6.278,3.579v14.786c0,3.813.879,4.636,4.222,4.694v.881H423.773v-.881c3.346-.236,3.991-.587,3.991-4.167V-543.4c0-4.049-1.293-6.513-3.815-6.513-2.171,0-5.043,1.114-6.217,2.523a4.253,4.253,0,0,0-.763,1v16.312c0,2.523.881,3.11,3.988,3.228v.881H407.932v-.881c3.286-.058,4.106-.881,4.106-4.282V-545.69c0-2.874-.53-3.873-2.053-3.873a7.485,7.485,0,0,0-1.877.236v-1a81.607,81.607,0,0,0,8.155-2.64l.469.178v4.342h.118c3.873-3.991,6.338-4.521,8.976-4.521,3.17,0,5.166,1.586,6.222,4.93,3.167-3.4,6.159-4.93,9.563-4.93,4.751,0,6.8,3.639,6.8,10.562v11.912c0,2.64.763,3.4,2.523,3.519l1.529.118v.881Z" transform="translate(-289.029 566.051)" fill="#c3c3c3"/>
        <path id="Path_11" data-name="Path 11" d="M426.123-518.1v-.881c4.049-.236,4.636-.763,4.636-5.223v-13.318c0-2.758-.469-3.7-1.938-3.7a8.75,8.75,0,0,0-2.462.293v-.939l9.094-3.228.236.236v20.594c0,4.342.469,4.987,4.34,5.281v.881Zm6.571-34.091a2.921,2.921,0,0,1-2.934-2.992,3.007,3.007,0,0,1,2.994-2.994,2.97,2.97,0,0,1,2.992,2.994A2.948,2.948,0,0,1,432.694-552.193Z" transform="translate(-261.561 558.179)" fill="#c3c3c3"/>
        <path id="Path_12" data-name="Path 12" d="M445.6-525.386c-7.1,0-12.675-5.811-12.675-13.965s5.281-13.614,13.2-13.614c7.161,0,12.675,5.341,12.675,13.438C458.8-531.373,453.521-525.386,445.6-525.386Zm4.987-23a6.756,6.756,0,0,0-5.575-2.934c-4.049,0-6.807,3.461-6.807,9.33,0,4.633.939,8.86,3.107,12.028a6.348,6.348,0,0,0,5.283,2.934c4.34,0,6.922-4.106,6.922-10.913C453.521-541.935,452.467-545.983,450.59-548.388Z" transform="translate(-251.287 566.051)" fill="#c3c3c3"/>
        <path id="Path_13" data-name="Path 13" d="M457.394-539.976c3.755,2.289,5.163,3.873,5.163,7.216,0,3.933-3.755,7.337-8.213,7.337a13.827,13.827,0,0,1-4.284-.529,7.672,7.672,0,0,0-2.7-.527,1.337,1.337,0,0,0-1.406.7h-.766v-9.212h.939c1.232,5.693,3.406,8.273,7.455,8.273,2.989,0,4.867-1.935,4.867-4.342,0-1.817-1.17-3.343-3.107-4.4l-3.17-1.759c-4.869-2.7-7.038-5.514-7.038-8.509,0-4.636,3.283-7.216,8.095-7.216a8.82,8.82,0,0,1,3.933.645,4.416,4.416,0,0,0,1.642.469c.236,0,.469-.058.939-.587h.645l.294,7.979H459.8c-1.353-5.279-3.112-7.216-6.631-7.216-2.523,0-4.4,1.232-4.4,3.991a5.062,5.062,0,0,0,2.523,3.991Z" transform="translate(-232.856 566.087)" fill="#c3c3c3"/>
      </g>
    </g>
  </g>
</svg>
