<svg xmlns="http://www.w3.org/2000/svg" width="80.628" height="28.517" viewBox="0 0 80.628 28.517">
  <g id="Carlos" transform="translate(0 -148.497)">
    <g id="Group_10" data-name="Group 10" transform="translate(0 148.497)">
      <g id="Group_9" data-name="Group 9" transform="translate(0 0)">
        <path id="Path_18" data-name="Path 18" d="M79.225,161.352H73.048a14.191,14.191,0,0,0-28.256,0H35.836a14.191,14.191,0,0,0-28.256,0H1.4a1.4,1.4,0,1,0,0,2.807H7.58a14.191,14.191,0,0,0,28.256,0h8.97a14.191,14.191,0,0,0,28.256,0h6.162a1.4,1.4,0,1,0,0-2.807ZM21.7,174.154h-.028a11.412,11.412,0,1,1,.028,0Zm37.226,0H58.9a11.412,11.412,0,1,1,.028,0Z" transform="translate(0 -148.497)" fill="#ee4f1a"/>
      </g>
    </g>
    <g id="Group_12" data-name="Group 12" transform="translate(21.856 153.842)">
      <g id="Group_11" data-name="Group 11" transform="translate(0 0)">
        <path id="Path_19" data-name="Path 19" d="M125.964,178.96h0a1.4,1.4,0,1,0,0,2.807,4.618,4.618,0,0,1,4.618,4.618,1.4,1.4,0,1,0,2.807,0A7.425,7.425,0,0,0,125.964,178.96Z" transform="translate(-124.56 -178.96)" fill="#ee4f1a"/>
      </g>
    </g>
    <g id="Group_14" data-name="Group 14" transform="translate(58.997 153.842)">
      <g id="Group_13" data-name="Group 13" transform="translate(0 0)">
        <path id="Path_20" data-name="Path 20" d="M337.644,178.96h0a1.4,1.4,0,1,0,0,2.807,4.618,4.618,0,0,1,4.618,4.618,1.4,1.4,0,1,0,2.807,0A7.425,7.425,0,0,0,337.644,178.96Z" transform="translate(-336.24 -178.96)" fill="#ee4f1a"/>
      </g>
    </g>
  </g>
</svg>
