<?xml version="1.0" encoding="utf-8"?>
<!-- Generator: Adobe Illustrator 24.2.1, SVG Export Plug-In . SVG Version: 6.00 Build 0)  -->
<svg version="1.1" id="Layer_1" xmlns="http://www.w3.org/2000/svg" xmlns:xlink="http://www.w3.org/1999/xlink" x="0px" y="0px"
	 viewBox="0 0 80 80" style="enable-background:new 0 0 80 80;" xml:space="preserve">
<style type="text/css">
	.st0{fill:#F0EEEE;}
	.st1{fill:#FB403F;}
	.st2{fill:#C21C1C;}
	.st3{fill:#FF6464;}
	.st4{fill:#FA9E3E;}
	.st5{fill:#2A434F;}
	.st6{fill:#3D5868;}
	.st7{fill:#D9D4D4;}
	.st8{fill:#C6BEBE;}
	.st9{fill:#FFB56B;}
	.st10{fill:#EF9245;}
	.st11{fill:#19303F;}
</style>
<g>
	<path class="st0" d="M47.2,54.5H31.3c-6.8,0-12.4,5.6-12.4,12.4v9.8c0,0.6,0.5,1.1,1.1,1.1h38.5c0.6,0,1.1-0.5,1.1-1.1v-9.8
		C59.6,60,54,54.5,47.2,54.5z"/>
	<path class="st1" d="M47.2,54.5h-1.6c-0.6,0-1.1,0.5-1.1,1.1v21.1c0,0.6,0.5,1.1,1.1,1.1h12.9c0.6,0,1.1-0.5,1.1-1.1v-9.8
		C59.6,60,54,54.5,47.2,54.5z"/>
	<path class="st2" d="M47.2,54.5h-1.6c-0.2,0-0.4,0.1-0.5,0.1c6,0.9,10.5,6.1,10.5,12.3v9.8c0,0.6-0.5,1.1-1.1,1.1h4.1
		c0.6,0,1.1-0.5,1.1-1.1v-9.8C59.6,60,54,54.5,47.2,54.5z"/>
	<path class="st1" d="M32.9,54.5h-1.6c-6.8,0-12.4,5.6-12.4,12.4v9.8c0,0.6,0.5,1.1,1.1,1.1h12.9c0.6,0,1.1-0.5,1.1-1.1V55.6
		C34.1,55,33.6,54.5,32.9,54.5z"/>
	<g>
		<path class="st3" d="M55.8,64.2l-5.6-9.3c-0.5-1-1.5-1.6-2.6-1.6h-2c-0.6,0-1.1,0.5-1.1,1.1v20v2.2v1.1h1.5v-0.1
			c0.1,0,0.2-0.1,0.3-0.2l7.2-6c0.4-0.3,0.5-0.9,0.3-1.3l-1.4-3.2l2.9-1.2c0.3-0.1,0.5-0.4,0.6-0.7C56,64.9,56,64.5,55.8,64.2z"/>
		<path class="st3" d="M32.9,53.4h-2c-1.1,0-2.1,0.6-2.6,1.6l-5.6,9.3c-0.2,0.3-0.2,0.6-0.1,0.9c0.1,0.3,0.3,0.6,0.6,0.7l2.9,1.2
			l-1.4,3.2c-0.2,0.5-0.1,1,0.3,1.3l7.2,6c0.1,0.1,0.2,0.1,0.3,0.2v0.1h1.5v-1.1v-2.2v-20C34.1,53.9,33.6,53.4,32.9,53.4z"/>
	</g>
	<path class="st4" d="M45.5,41.2v14.3l-2.8,2.9c-0.9,0.9-2.2,1.5-3.5,1.5l0,0c-1.3,0-2.6-0.5-3.5-1.5l-2.8-2.9V41.2H45.5L45.5,41.2z
		"/>
	<path class="st5" d="M47.7,60.3l1.1-2.4c0.4-0.9,0.2-2-0.5-2.7c-0.7-0.7-1.7-1-2.6-0.7l-6,2.1c-0.1,0.1-0.3,0.1-0.4,0.2
		c-0.1-0.1-0.2-0.2-0.4-0.2l-6-2.1c-0.9-0.3-2-0.1-2.6,0.7c-0.7,0.7-0.9,1.8-0.5,2.7l1.1,2.4l-1.1,2.4c-0.4,0.9-0.2,2,0.5,2.7
		c0.5,0.5,1.1,0.8,1.8,0.8c0.3,0,0.6,0,0.8-0.1l6-2.1c0.1-0.1,0.3-0.1,0.4-0.2c0.1,0.1,0.2,0.2,0.4,0.2l6,2.1
		c0.3,0.1,0.6,0.1,0.8,0.1c0.7,0,1.3-0.3,1.8-0.8c0.7-0.7,0.9-1.8,0.5-2.7L47.7,60.3z"/>
	<g>
		<path class="st6" d="M39.2,55.8c-1.8,0-3.3,1.5-3.3,3.3v2.5c0,1.8,1.5,3.3,3.3,3.3c1.8,0,3.3-1.5,3.3-3.3V59
			C42.5,57.2,41,55.8,39.2,55.8z"/>
		<path class="st6" d="M39.2,68.6c-0.1,0-0.1,0-0.2,0c-0.1,0-0.1,0-0.2-0.1c-0.1,0-0.1-0.1-0.2-0.1c-0.1,0-0.1-0.1-0.2-0.1
			c-0.2-0.2-0.3-0.5-0.3-0.8c0-0.1,0-0.1,0-0.2c0-0.1,0-0.1,0.1-0.2c0-0.1,0.1-0.1,0.1-0.2c0-0.1,0.1-0.1,0.1-0.2
			c0.1-0.1,0.1-0.1,0.2-0.1c0.1,0,0.1-0.1,0.2-0.1c0.1,0,0.1,0,0.2-0.1c0.4-0.1,0.8,0,1,0.3c0.1,0.1,0.1,0.1,0.1,0.2
			c0,0.1,0.1,0.1,0.1,0.2c0,0.1,0,0.1,0.1,0.2c0,0.1,0,0.1,0,0.2c0,0.1,0,0.1,0,0.2c0,0.1,0,0.1-0.1,0.2c0,0.1-0.1,0.1-0.1,0.2
			c0,0.1-0.1,0.1-0.1,0.2c-0.1,0.1-0.1,0.1-0.2,0.1c-0.1,0-0.1,0.1-0.2,0.1c-0.1,0-0.1,0-0.2,0.1C39.4,68.6,39.3,68.6,39.2,68.6z"/>
		<path class="st6" d="M39.2,73.4c-0.1,0-0.1,0-0.2,0c-0.1,0-0.1,0-0.2-0.1c-0.1,0-0.1-0.1-0.2-0.1c-0.1,0-0.1-0.1-0.2-0.1
			c-0.1-0.1-0.1-0.1-0.1-0.2c0-0.1-0.1-0.1-0.1-0.2c0-0.1-0.1-0.1-0.1-0.2c0-0.1,0-0.1,0-0.2s0-0.1,0-0.2c0-0.1,0-0.1,0.1-0.2
			c0-0.1,0.1-0.1,0.1-0.2c0-0.1,0.1-0.1,0.1-0.2c0.1-0.1,0.1-0.1,0.2-0.1c0.1,0,0.1-0.1,0.2-0.1c0.1,0,0.1-0.1,0.2-0.1
			c0.1,0,0.3,0,0.4,0c0.1,0,0.1,0,0.2,0.1c0.1,0,0.1,0.1,0.2,0.1c0.1,0,0.1,0.1,0.2,0.1c0.1,0.1,0.1,0.1,0.1,0.2
			c0,0.1,0.1,0.1,0.1,0.2c0,0.1,0,0.1,0.1,0.2c0,0.1,0,0.1,0,0.2s0,0.1,0,0.2c0,0.1,0,0.1-0.1,0.2c0,0.1-0.1,0.1-0.1,0.2
			c0,0.1-0.1,0.1-0.1,0.2c-0.1,0.1-0.1,0.1-0.2,0.1c-0.1,0-0.1,0.1-0.2,0.1c-0.1,0-0.1,0-0.2,0.1C39.4,73.4,39.3,73.4,39.2,73.4z"/>
	</g>
	<path class="st7" d="M47.2,5.9c-1.3-0.2-5-2.8-7.2-4.6c-0.3-0.3-0.8-0.3-1.2-0.2c-0.4,0.2-0.6,0.6-0.7,1c0,0.4,0,1.5,0.1,2.7
		c-2.1-0.7-4.8-1.7-6.3-3.4c-0.3-0.3-0.7-0.5-1.1-0.4c-0.4,0.1-0.7,0.4-0.8,0.8c-0.5,1.6-0.1,3,0.4,4.1C22.6,7,16.5,13.6,16.5,21.7
		v17.6c0,0.6,0.5,1.1,1.1,1.1h5.2c0.3,0,0.7-0.2,0.9-0.4c0.2-0.3,0.3-0.6,0.2-0.9c-0.2-1.1-0.4-2.3-0.4-3.4v-7c0,0,0,0,0-0.1
		c3-0.3,5.3-2.9,5.3-6.1c0-1.4-0.5-2.8-1.3-3.9c0.4-0.4,0.8-0.8,1.2-1.2c2.4,1.5,6.3,2.4,10.5,2.4s8.1-0.9,10.5-2.4
		c0.4,0.4,0.8,0.8,1.2,1.2c-0.8,1.1-1.3,2.5-1.3,3.9c0,3.2,2.3,5.8,5.3,6.1c0,0,0,0,0,0.1v7c0,1.2-0.1,2.3-0.4,3.4
		c-0.1,0.3,0,0.7,0.2,0.9c0.2,0.3,0.5,0.4,0.9,0.4h5.2c0.6,0,1.1-0.5,1.1-1.1V21.7C61.9,13.4,55.5,6.5,47.2,5.9z"/>
	<path class="st8" d="M47.2,5.9c-1.3-0.2-5-2.8-7.2-4.6c-0.3-0.3-0.8-0.3-1.2-0.2c-0.3,0.1-0.5,0.4-0.6,0.7c2,1.7,4.9,3.9,5.9,4.1
		c7.5,0.5,13.3,7.4,13.3,15.8v17.6c0,0.6-0.5,1.1-1,1.1h4.4c0.6,0,1.1-0.5,1.1-1.1V21.7C61.9,13.4,55.5,6.5,47.2,5.9z"/>
	<g>
		<path class="st4" d="M19.7,34.7h7.4v8.5h-7.4c-2.3,0-4.2-1.9-4.2-4.2C15.5,36.6,17.4,34.7,19.7,34.7z"/>
		<path class="st4" d="M58.7,34.7h-7.4v8.5h7.4c2.3,0,4.2-1.9,4.2-4.2C63,36.6,61.1,34.7,58.7,34.7z"/>
	</g>
	<path class="st9" d="M56,28.7v7c0,0.1,0,0.3,0,0.4c0,0.1,0,0.3,0,0.4c0,0.1,0,0.3,0,0.4c0,0.1,0,0.3,0,0.4c0,0.1,0,0.2,0,0.3
		c0,0.1,0,0.2,0,0.2c0,0,0,0.1,0,0.1c0,0.1,0,0.2,0,0.3c0,0.1,0,0.1,0,0.2c0,0.1,0,0.2-0.1,0.3c0,0,0,0.1,0,0.1c0,0.1,0,0.2-0.1,0.3
		c0,0,0,0.1,0,0.1c0,0.1,0,0.2-0.1,0.2c0,0.1,0,0.1,0,0.2c0,0.1,0,0.2-0.1,0.2c0,0,0,0,0,0.1c0,0.1-0.1,0.2-0.1,0.3c0,0,0,0,0,0.1
		c0,0.1-0.1,0.2-0.1,0.3c0,0.1-0.1,0.2-0.1,0.3c0,0.1-0.1,0.2-0.1,0.3c0,0.1-0.1,0.2-0.1,0.3c0,0.1-0.1,0.2-0.1,0.3
		c0,0.1-0.1,0.2-0.1,0.2c0,0,0,0.1-0.1,0.1c0,0.1,0,0.1-0.1,0.2c0,0.1-0.1,0.2-0.1,0.2c-0.2,0.5-0.5,0.9-0.7,1.4
		c-0.1,0.1-0.1,0.2-0.2,0.3c0,0,0,0,0,0c-0.1,0.1-0.1,0.2-0.2,0.3c0,0,0,0.1,0,0.1c-0.1,0.1-0.1,0.2-0.2,0.2c0,0,0,0.1-0.1,0.1
		c-0.1,0.1-0.1,0.1-0.2,0.2c0,0-0.1,0.1-0.1,0.1c-0.1,0.2-0.3,0.4-0.4,0.6c-0.1,0.1-0.2,0.3-0.3,0.4c-0.1,0.1-0.1,0.2-0.2,0.3
		c0,0,0,0,0,0c-0.1,0.1-0.2,0.2-0.3,0.3c0,0,0,0,0,0c-0.1,0.1-0.1,0.1-0.2,0.2c0,0-0.1,0.1-0.1,0.1c0,0-0.1,0.1-0.1,0.1
		c-0.1,0.1-0.1,0.1-0.2,0.2c-0.1,0.1-0.2,0.2-0.3,0.3c-0.1,0.1-0.2,0.2-0.3,0.3l-0.1,0.1c-0.1,0.1-0.2,0.1-0.2,0.2L50,48.6
		c0,0-0.1,0.1-0.1,0.1l-0.6,0.5c-0.2,0.1-0.4,0.3-0.6,0.4l-0.2,0.2c-0.1,0-0.1,0.1-0.2,0.1l-0.3,0.2c-0.1,0.1-0.2,0.1-0.3,0.2
		c-0.1,0.1-0.2,0.1-0.3,0.2l-0.1,0c-0.2,0.1-0.5,0.2-0.7,0.4c-0.1,0.1-0.2,0.1-0.3,0.2l-0.1,0c-0.1,0-0.2,0.1-0.2,0.1l-0.1,0.1
		c-0.1,0-0.2,0.1-0.3,0.1c-0.1,0-0.2,0.1-0.3,0.1l-0.9,0.3c-0.1,0-0.2,0.1-0.3,0.1c-0.1,0-0.1,0-0.2,0.1L43.4,52
		c-0.1,0-0.2,0-0.3,0.1c-0.1,0-0.1,0-0.2,0l-0.4,0.1c-0.1,0-0.2,0-0.3,0.1l-0.5,0.1c-0.1,0-0.2,0-0.2,0l-0.2,0c-0.1,0-0.1,0-0.2,0
		l-0.2,0c0,0-0.1,0-0.1,0c-0.1,0-0.2,0-0.3,0l-0.1,0c-0.1,0-0.2,0-0.3,0l-0.1,0c-0.1,0-0.2,0-0.3,0l-0.5,0c-0.1,0-0.3,0-0.4,0
		c-0.1,0-0.2,0-0.3,0c-0.1,0-0.1,0-0.2,0c-7.6-0.4-13.9-5.9-15.5-13.1c-0.3-1.2-0.4-2.4-0.4-3.6v-7c0-0.4,0-0.8,0-1.2
		c0.2,0,0.3,0,0.5,0c2.6,0,4.8-2.3,4.8-5c0-1.6-0.7-2.9-1.7-3.9c0.8-1,1.7-1.8,2.7-2.6c2,1.6,5.9,2.7,10.5,2.7s8.5-1.1,10.5-2.7
		c1,0.8,1.9,1.6,2.7,2.6c-1,0.9-1.7,2.3-1.7,3.9c0,1.6,0.7,3,1.8,4c0.8,0.7,1.8,1.1,3,1.1c0.2,0,0.3,0,0.5,0
		C56,27.9,56,28.3,56,28.7z"/>
	<path class="st10" d="M56,28.7v7c0,0.1,0,0.3,0,0.4c0,0.1,0,0.3,0,0.4c0,0.1,0,0.3,0,0.4c0,0.1,0,0.3,0,0.4c0,0.1,0,0.2,0,0.3
		c0,0.1,0,0.2,0,0.2c0,0,0,0.1,0,0.1c0,0.1,0,0.2,0,0.3c0,0.1,0,0.1,0,0.2c0,0.1,0,0.2-0.1,0.3c0,0,0,0.1,0,0.1c0,0.1,0,0.2-0.1,0.3
		c0,0,0,0.1,0,0.1c0,0.1,0,0.2-0.1,0.2c0,0.1,0,0.1,0,0.2c0,0.1,0,0.2-0.1,0.2c0,0,0,0,0,0.1c0,0.1-0.1,0.2-0.1,0.3c0,0,0,0,0,0.1
		c0,0.1-0.1,0.2-0.1,0.3c0,0.1-0.1,0.2-0.1,0.3c0,0.1-0.1,0.2-0.1,0.3c0,0.1-0.1,0.2-0.1,0.3c0,0.1-0.1,0.2-0.1,0.3
		c0,0.1-0.1,0.2-0.1,0.2c0,0,0,0.1-0.1,0.1c0,0.1,0,0.1-0.1,0.2c0,0.1-0.1,0.2-0.1,0.2c-0.2,0.5-0.5,0.9-0.7,1.4
		c-0.1,0.1-0.1,0.2-0.2,0.3c0,0,0,0,0,0c-0.1,0.1-0.1,0.2-0.2,0.3c0,0,0,0.1,0,0.1c-0.1,0.1-0.1,0.2-0.2,0.2c0,0,0,0.1-0.1,0.1
		c-0.1,0.1-0.1,0.1-0.2,0.2c0,0-0.1,0.1-0.1,0.1c-0.1,0.2-0.3,0.4-0.4,0.6c-0.1,0.1-0.2,0.3-0.3,0.4c-0.1,0.1-0.1,0.2-0.2,0.3
		c0,0,0,0,0,0c-0.1,0.1-0.2,0.2-0.3,0.3c0,0,0,0,0,0c-0.1,0.1-0.1,0.1-0.2,0.2c0,0-0.1,0.1-0.1,0.1c0,0-0.1,0.1-0.1,0.1
		c-0.1,0.1-0.1,0.1-0.2,0.2c-0.1,0.1-0.2,0.2-0.3,0.3c-0.1,0.1-0.2,0.2-0.3,0.3l-0.1,0.1c-0.1,0.1-0.2,0.1-0.2,0.2L50,48.6
		c0,0-0.1,0.1-0.1,0.1l-0.6,0.5c-0.2,0.1-0.4,0.3-0.6,0.4l-0.2,0.2c-0.1,0-0.1,0.1-0.2,0.1l-0.3,0.2c-0.1,0.1-0.2,0.1-0.3,0.2
		c-0.1,0.1-0.2,0.1-0.3,0.2l-0.1,0c-0.2,0.1-0.5,0.2-0.7,0.4c-0.1,0.1-0.2,0.1-0.3,0.2l-0.1,0c-0.1,0-0.2,0.1-0.2,0.1l-0.1,0.1
		c-0.1,0-0.2,0.1-0.3,0.1c-0.1,0-0.2,0.1-0.3,0.1l-0.9,0.3c-0.1,0-0.2,0.1-0.3,0.1c-0.1,0-0.1,0-0.2,0.1L43.4,52
		c-0.1,0-0.2,0-0.3,0.1c-0.1,0-0.1,0-0.2,0l-0.4,0.1c-0.1,0-0.2,0-0.3,0.1l-0.5,0.1c-0.1,0-0.2,0-0.2,0l-0.2,0c-0.1,0-0.1,0-0.2,0
		l-0.2,0c0,0-0.1,0-0.1,0c-0.1,0-0.2,0-0.3,0l-0.1,0c-0.1,0-0.2,0-0.3,0l-0.1,0c-0.1,0-0.2,0-0.3,0l-0.5,0c-0.1,0-0.3,0-0.4,0
		c-0.1,0-0.2,0-0.3,0c-0.1,0-0.1,0-0.2,0c7.9-0.4,14.2-7,14.2-15v-11c0.8,0.7,1.8,1.1,3,1.1c0.2,0,0.3,0,0.5,0
		C56,27.9,56,28.3,56,28.7z"/>
	<g>
		<path class="st11" d="M47.4,33.2c-0.6,0-1.1-0.5-1.1-1.1v-0.3c0-0.6,0.5-1.1,1.1-1.1c0.6,0,1.1,0.5,1.1,1.1v0.3
			C48.5,32.7,48,33.2,47.4,33.2z"/>
		<path class="st11" d="M31.1,33.2c-0.6,0-1.1-0.5-1.1-1.1v-0.3c0-0.6,0.5-1.1,1.1-1.1c0.6,0,1.1,0.5,1.1,1.1v0.3
			C32.2,32.7,31.7,33.2,31.1,33.2z"/>
	</g>
</g>
<path class="st11" d="M57.8,25.1c-2.1-0.6-4.8-0.8-6.5-1l0,0c-1-0.1-1.7-0.1-1.7-0.1c-4,0-6,1.4-7,3.5c-0.8-0.7-1.8-1.1-2.8-1.1l0,0
	l0,0l0,0l0,0c-1,0-2,0.4-2.8,1.1c-1-2.1-3-3.5-7-3.5c0,0-0.7,0-1.7,0.1l0,0c-1.7,0.1-4.4,0.4-6.5,1c-0.4,0.1-0.7,0.5-0.7,0.9v0.5
	c0,0.5,0.3,0.9,0.8,0.9c0.5,0.1,0.9,0.2,0.8,1c-0.3,1.1-0.3,2.2-0.3,3.4c0,4.3,3.4,7.7,7.7,7.7c2.8,0,5.2-1.5,6.6-3.7
	c0-0.1,0.3-0.7,0.7-1.6c0.8-1.9,1.9-4.9,0.2-4.6l0,0c-0.1-0.2-0.1-0.5-0.2-0.7c0.7-0.8,1.5-1.2,2.4-1.2c0.8,0,1.6,0.4,2.4,1.2
	c-0.1,0.2-0.1,0.5-0.2,0.7l0,0c-1.6-0.3-0.6,2.6,0.2,4.6c0.4,0.9,0.7,1.6,0.7,1.6c1.4,2.3,3.8,3.7,6.6,3.7c4.3,0,7.7-3.4,7.7-7.7
	c0-1.2-0.1-2.4-0.4-3.4c-0.1-0.7,0.3-0.9,0.8-1c0.5-0.1,0.8-0.5,0.8-0.9V26C58.6,25.6,58.3,25.2,57.8,25.1z M22.2,26.5
	c-0.2,0-0.3-0.1-0.3-0.2c0-0.1,0.1-0.2,0.3-0.2c0.2,0,0.3,0.1,0.3,0.2C22.6,26.4,22.4,26.5,22.2,26.5z M30.1,38.2
	c-3.6,0-6.5-2.9-6.5-6.5s1-6.5,6.5-6.5c5.3,0,6.5,2.9,6.5,6.5S33.7,38.2,30.1,38.2z M49.6,38.2c-3.6,0-6.5-2.9-6.5-6.5
	s1.2-6.5,6.5-6.5c5.5,0,6.5,2.9,6.5,6.5S53.2,38.2,49.6,38.2z M57.5,26.5c-0.2,0-0.3-0.1-0.3-0.2c0-0.1,0.2-0.2,0.3-0.2
	c0.2,0,0.3,0.1,0.3,0.2C57.8,26.4,57.7,26.5,57.5,26.5z"/>
</svg>
