<?xml version="1.0" encoding="utf-8"?>
<!-- Generator: Adobe Illustrator 24.2.1, SVG Export Plug-In . SVG Version: 6.00 Build 0)  -->
<svg version="1.1" id="Layer_1" xmlns="http://www.w3.org/2000/svg" xmlns:xlink="http://www.w3.org/1999/xlink" x="0px" y="0px"
	 viewBox="0 0 80 80" style="enable-background:new 0 0 80 80;" xml:space="preserve">
<style type="text/css">
	.st0{fill:#EE4F1A;}
</style>
<g id="Carlos" transform="translate(0 -148.497)">
	<g id="Group_10" transform="translate(0 148.497)">
		<g id="Group_9" transform="translate(0 0)">
			<path id="Path_18" class="st0" d="M76.7,38.7h-5.8c-0.7-7.4-7.2-12.8-14.6-12.1c-6.4,0.6-11.5,5.7-12.1,12.1h-8.4
				c-0.7-7.4-7.2-12.8-14.6-12.1c-6.4,0.6-11.5,5.7-12.1,12.1H3.3C2.6,38.7,2,39.3,2,40c0,0.7,0.6,1.3,1.3,1.3h5.8
				c0.7,7.4,7.2,12.8,14.6,12.1c6.4-0.6,11.5-5.7,12.1-12.1h8.5c0.7,7.4,7.2,12.8,14.6,12.1c6.4-0.6,11.5-5.7,12.1-12.1h5.8
				c0.7,0,1.3-0.6,1.3-1.3C78,39.3,77.4,38.7,76.7,38.7L76.7,38.7z M22.5,50.7L22.5,50.7c-6,0-10.8-4.8-10.8-10.8
				c0-5.9,4.8-10.7,10.8-10.7c5.9,0,10.7,4.8,10.7,10.8C33.2,45.9,28.4,50.7,22.5,50.7z M57.5,50.7L57.5,50.7
				c-6,0-10.8-4.8-10.8-10.8c0-5.9,4.8-10.7,10.8-10.7c5.9,0,10.7,4.8,10.7,10.8C68.3,45.9,63.5,50.7,57.5,50.7L57.5,50.7z"/>
		</g>
	</g>
	<g id="Group_12" transform="translate(21.856 153.842)">
		<g id="Group_11" transform="translate(0 0)">
			<path id="Path_19" class="st0" d="M2.1,26.3L2.1,26.3c-0.7,0-1.3,0.6-1.3,1.3s0.6,1.3,1.3,1.3c2.4,0,4.4,1.9,4.4,4.4l0,0
				c0,0.7,0.6,1.3,1.3,1.3s1.3-0.6,1.3-1.3C9.1,29.4,5.9,26.3,2.1,26.3C2.1,26.3,2.1,26.3,2.1,26.3z"/>
		</g>
	</g>
	<g id="Group_14" transform="translate(58.997 153.842)">
		<g id="Group_13" transform="translate(0 0)">
			<path id="Path_20" class="st0" d="M-0.1,26.3L-0.1,26.3c-0.7,0-1.3,0.6-1.3,1.3s0.6,1.3,1.3,1.3c2.4,0,4.4,1.9,4.4,4.4
				c0,0,0,0,0,0c0,0.7,0.6,1.3,1.3,1.3s1.3-0.6,1.3-1.3C6.9,29.4,3.8,26.3-0.1,26.3C-0.1,26.3-0.1,26.3-0.1,26.3z"/>
		</g>
	</g>
</g>
</svg>
