<?xml version="1.0" encoding="utf-8"?>
<!-- Generator: Adobe Illustrator 24.2.1, SVG Export Plug-In . SVG Version: 6.00 Build 0)  -->
<svg version="1.1" id="Layer_1" xmlns="http://www.w3.org/2000/svg" xmlns:xlink="http://www.w3.org/1999/xlink" x="0px" y="0px"
	 viewBox="0 0 80 80" style="enable-background:new 0 0 80 80;" xml:space="preserve">
<style type="text/css">
	.st0{fill:#484655;}
	.st1{fill:#35343F;}
	.st2{fill:#FA9E3E;}
	.st3{fill:#F0EEEE;}
	.st4{fill:#D9D4D4;}
	.st5{fill:#19303F;}
</style>
<path class="st0" d="M67.9,37.3l-4-12.4c-2.7-8.5-8.8-15.5-16.8-19.3c-1-0.5-1.9-0.8-2.6-1c-2.7-0.7-8.1-0.7-10.8,0
	c-0.7,0.2-1.5,0.5-2.6,1c-7.9,3.8-14,10.9-16.7,19.3l-3.9,12.4c-1.2,3.9,0,8.2,3,10.9l10.5,9.2C21.5,59.7,20,63,20,66.4v9.3
	c0,0.6,0.5,1.1,1.1,1.1h36.4c0.6,0,1.1-0.5,1.1-1.1v-9.3c0-3.4-1.5-6.7-4.1-8.9l10.5-9.3C67.9,45.5,69.1,41.2,67.9,37.3z"/>
<g>
	<path class="st1" d="M67.9,37.3l-4-12.4c-2.7-8.5-8.8-15.5-16.8-19.3c-1-0.5-1.9-0.8-2.6-1C43,4.2,40.4,4,38.1,4.1
		c1.5,0.1,2.9,0.2,3.9,0.5c0.6,0.2,1.4,0.5,2.4,1c7.3,3.8,13,10.8,15.5,19.3l3.7,12.4c1.1,3.9,0.1,8.2-2.7,10.9L51,57.5
		c2.4,2.2,3.8,5.5,3.8,8.9v9.3c0,0.6-0.4,1.1-1,1.1h3.6c0.6,0,1.1-0.5,1.1-1.1v-9.3c0-3.4-1.5-6.7-4.1-8.9l10.5-9.3
		C67.9,45.5,69.1,41.2,67.9,37.3z"/>
	<path class="st1" d="M60.1,46.8L39.2,65.7L18.4,46.8c-0.5-0.5-0.7-1.2-0.4-1.9c0,0,0,0,0,0c0.7-1.5,2-4.3,3.5-6.9
		c0.6-1,1.2-2,1.8-2.9c1-1.5,2.1-2.7,3-3.2c5.6-3.1,20.2-3.1,25.8,0c0.9,0.5,2,1.7,3,3.2C55.8,36,56.4,37,57,38
		c1.5,2.6,2.8,5.4,3.5,6.9c0,0,0,0,0,0C60.8,45.6,60.6,46.4,60.1,46.8z"/>
</g>
<g>
	<path class="st2" d="M45.2,55.8V42.1h-12v13.7l-1.5,0c-1,0-2.1,0.2-3,0.4l10.5,9.5l10.5-9.5c-1-0.3-2-0.4-3-0.4L45.2,55.8z"/>
	<path class="st2" d="M59.7,43.4C59,41.9,58,39.9,57,38c-0.4-0.7-0.9-1.5-1.3-2.1h-5v8h7C58.5,43.9,59.1,43.7,59.7,43.4z"/>
	<path class="st2" d="M21.5,38c-1.1,1.9-2.1,3.8-2.8,5.4c0.6,0.3,1.3,0.5,2,0.5h7v-8h-5C22.3,36.6,21.9,37.3,21.5,38z"/>
</g>
<path class="st3" d="M52.2,31.9c-5.6-3.1-20.2-3.1-25.8,0c-0.9,0.5-2,1.7-3,3.2v1.7c0,2.5,0.6,5,1.7,7.1c2.6,5.2,8,8.8,14.3,8.8
	s11.6-3.6,14.3-8.8c1.1-2.1,1.7-4.5,1.7-7.1v-1.7C54.1,33.6,53.1,32.4,52.2,31.9z"/>
<g>
	<path class="st4" d="M52.2,31.9c-5.6-3.1-20.2-3.1-25.8,0c-0.6,0.3-1.3,1-2,1.8c7.8-1.4,19.4-3,29.8,8.8c0.7-1.8,1-3.7,1-5.7v-1.7
		C54.1,33.6,53.1,32.4,52.2,31.9z"/>
	<path class="st4" d="M52.2,31.9c-0.1-0.1-0.2-0.1-0.3-0.2v6.7c0,7.6-5.9,13.8-13.4,14.2c0,0,0.1,0,0.1,0c0.1,0,0.1,0,0.2,0
		c0.2,0,0.3,0,0.5,0l0,0c0,0,0,0,0,0c0.2,0,0.3,0,0.5,0c0,0,0.1,0,0.1,0c0.1,0,0.3,0,0.4,0c0,0,0.1,0,0.1,0c0.2,0,0.3,0,0.5,0
		c0,0,0.1,0,0.1,0c0,0,0.1,0,0.1,0c0.1,0,0.2,0,0.3,0c0,0,0.1,0,0.1,0c0.1,0,0.1,0,0.2,0c0.1,0,0.2,0,0.3,0c0,0,0,0,0.1,0
		c0.1,0,0.2,0,0.2,0c0.1,0,0.1,0,0.2,0c0,0,0.1,0,0.1,0c0.2,0,0.3-0.1,0.5-0.1c0,0,0,0,0,0c0.2,0,0.3-0.1,0.5-0.1c0,0,0.1,0,0.1,0
		c0.1,0,0.3-0.1,0.4-0.1c0,0,0.1,0,0.1,0c0,0,0.1,0,0.1,0c0.1,0,0.3-0.1,0.4-0.1c0,0,0.1,0,0.1,0c0.1,0,0.3-0.1,0.4-0.2
		c0,0,0.1,0,0.1,0c0.2-0.1,0.3-0.1,0.5-0.2c0,0,0,0,0,0c0.1,0,0.1-0.1,0.2-0.1c0.1,0,0.2-0.1,0.3-0.1c0,0,0.1,0,0.1,0
		c0.1-0.1,0.3-0.1,0.4-0.2c0,0,0,0,0,0c0.1-0.1,0.3-0.2,0.4-0.2c0,0,0.1,0,0.1,0c0.1-0.1,0.2-0.1,0.4-0.2c0,0,0,0,0.1,0
		c0.1-0.1,0.3-0.2,0.4-0.3c0,0,0,0,0,0c0,0,0,0,0,0c0.1-0.1,0.2-0.2,0.3-0.2c0,0,0.1,0,0.1-0.1c0,0,0,0,0,0c0.3-0.2,0.5-0.4,0.8-0.6
		c0,0,0,0,0.1-0.1c0.1-0.1,0.2-0.2,0.3-0.3c0,0,0,0,0,0c0,0,0.1-0.1,0.1-0.1c0.1-0.1,0.2-0.2,0.3-0.3c0,0,0,0,0.1-0.1
		c0.1-0.1,0.1-0.1,0.2-0.2c0,0,0.1-0.1,0.1-0.1c0,0,0,0,0.1-0.1c0.1-0.1,0.2-0.2,0.2-0.2c0,0,0.1-0.1,0.1-0.1c0,0,0,0,0,0
		c0.1-0.1,0.2-0.2,0.3-0.3c0,0,0,0,0,0c0,0,0,0,0.1-0.1c0,0,0,0,0,0c0.2-0.3,0.4-0.5,0.6-0.8c0,0,0,0,0,0c0,0,0,0,0.1-0.1
		c0-0.1,0.1-0.1,0.1-0.2c0-0.1,0.1-0.1,0.1-0.2c0,0,0,0,0-0.1c0.1-0.1,0.2-0.3,0.3-0.4c0,0,0,0,0,0c0.1-0.1,0.2-0.3,0.2-0.4
		c0,0,0,0,0-0.1c0.2-0.3,0.3-0.6,0.5-0.9c0,0,0,0,0,0c0,0,0-0.1,0-0.1c0-0.1,0.1-0.2,0.1-0.3c0,0,0,0,0,0c0,0,0-0.1,0-0.1
		c0-0.1,0.1-0.2,0.1-0.3c0,0,0-0.1,0-0.1c0.1-0.3,0.2-0.5,0.3-0.8c0,0,0,0,0,0c0,0,0,0,0,0c0-0.1,0.1-0.2,0.1-0.4c0,0,0-0.1,0-0.1
		c0-0.1,0.1-0.2,0.1-0.3c0,0,0-0.1,0-0.1c0-0.1,0-0.2,0.1-0.2c0,0,0,0,0-0.1c0,0,0-0.1,0-0.1c0-0.1,0.1-0.2,0.1-0.3c0,0,0-0.1,0-0.1
		c0-0.1,0.1-0.3,0.1-0.4c0,0,0,0,0,0c0,0,0,0,0-0.1c0.1-0.3,0.1-0.5,0.1-0.8c0,0,0,0,0,0c0,0,0,0,0-0.1c0-0.1,0-0.1,0-0.2
		c0-0.1,0-0.1,0-0.2c0,0,0-0.1,0-0.1c0-0.1,0-0.2,0-0.4c0,0,0-0.1,0-0.1c0,0,0-0.1,0-0.1c0-0.1,0-0.2,0-0.2c0,0,0,0,0-0.1
		c0-0.1,0-0.2,0-0.3c0,0,0-0.1,0-0.1c0,0,0,0,0,0c0-0.2,0-0.3,0-0.5v-1.7C54.1,33.6,53.1,32.4,52.2,31.9z"/>
</g>
<g>
	<path class="st5" d="M39.2,50.3c-0.6,0-1.1-0.5-1.1-1.1v-1.4c0-0.6,0.5-1.1,1.1-1.1c0.6,0,1.1,0.5,1.1,1.1v1.4
		C40.3,49.8,39.8,50.3,39.2,50.3z"/>
	<path class="st5" d="M42.8,46.3c-0.2,0-0.4-0.1-0.6-0.2l-3-1.9l-3,1.9c-0.3,0.2-0.6,0.2-0.9,0.1l-3.8-1.4c-0.6-0.2-0.8-0.8-0.6-1.4
		c0.2-0.6,0.8-0.8,1.4-0.6l3.3,1.2l3.1-2c0.4-0.2,0.8-0.2,1.2,0l3.1,2l3.3-1.2c0.6-0.2,1.2,0.1,1.4,0.6c0.2,0.6-0.1,1.2-0.6,1.4
		l-3.8,1.4C43,46.3,42.9,46.3,42.8,46.3z"/>
	<path class="st5" d="M50.8,35.6c-0.3,0-0.5-0.1-0.8-0.3c-1.5-1.5-4.1-1.5-5.6,0c-0.4,0.4-1.1,0.4-1.5,0c-0.4-0.4-0.4-1.1,0-1.5
		c2.4-2.4,6.2-2.4,8.6,0c0.4,0.4,0.4,1.1,0,1.5C51.3,35.5,51.1,35.6,50.8,35.6z"/>
	<path class="st5" d="M34.8,35.6c-0.3,0-0.5-0.1-0.8-0.3c-1.5-1.5-4.1-1.5-5.6,0c-0.4,0.4-1.1,0.4-1.5,0c-0.4-0.4-0.4-1.1,0-1.5
		c2.4-2.4,6.2-2.4,8.6,0c0.4,0.4,0.4,1.1,0,1.5C35.3,35.5,35,35.6,34.8,35.6z"/>
</g>
</svg>
