<svg xmlns="http://www.w3.org/2000/svg" width="51.765" height="58.284" viewBox="0 0 51.765 58.284">
  <g id="esteban" transform="translate(-20.397)">
    <g id="Group_7" data-name="Group 7" transform="translate(20.397)">
      <g id="Group_6" data-name="Group 6">
        <path id="Path_14" data-name="Path 14" d="M86.138,113.562l-13.359-1.92L66.768,99.536a1.67,1.67,0,0,0-3.006,0l-6.011,12.106-13.359,1.92a1.67,1.67,0,0,0-1.336,1.169,1.754,1.754,0,0,0,.417,1.67l9.685,9.435L50.9,139.111a1.753,1.753,0,0,0,.668,1.67,1.67,1.67,0,0,0,1.753.167L65.265,134.6,77.2,140.947l.751.167a1.336,1.336,0,0,0,1-.334,1.754,1.754,0,0,0,.668-1.67l-2.254-13.275,9.685-9.435a1.753,1.753,0,0,0,.417-1.67A1.67,1.67,0,0,0,86.138,113.562Zm-11.772,10.52a1.754,1.754,0,0,0-.417,1.419l1.837,10.854-9.769-5.093a1.753,1.753,0,0,0-1.5,0l-9.769,5.093L56.582,125.5a1.754,1.754,0,0,0-.417-1.419L48.233,116.4l10.937-1.586a1.754,1.754,0,0,0,1.252-.918l4.843-9.852,4.843,9.852a1.753,1.753,0,0,0,1.252.918L82.3,116.4Z" transform="translate(-39.383 -82.837)" fill="#ee4f1a"/>
        <path id="Path_15" data-name="Path 15" d="M173.578,11.689a1.67,1.67,0,0,0,1.67-1.67V1.67a1.67,1.67,0,0,0-3.34,0v8.349A1.67,1.67,0,0,0,173.578,11.689Z" transform="translate(-147.695)" fill="#ee4f1a"/>
        <path id="Path_16" data-name="Path 16" d="M299.751,53.623a1.67,1.67,0,0,0-2.338.334l-5.01,6.679a1.67,1.67,0,0,0,.334,2.338,1.586,1.586,0,0,0,1,.334,1.753,1.753,0,0,0,1.336-.668l5.009-6.679A1.67,1.67,0,0,0,299.751,53.623Z" transform="translate(-248.654 -44.773)" fill="#ee4f1a"/>
        <path id="Path_17" data-name="Path 17" d="M27.076,63.308a1.586,1.586,0,0,0,1-.334,1.67,1.67,0,0,0,.334-2.338L23.4,53.957a1.67,1.67,0,0,0-2.672,2l5.01,6.679A1.753,1.753,0,0,0,27.076,63.308Z" transform="translate(-20.397 -44.773)" fill="#ee4f1a"/>
      </g>
    </g>
  </g>
</svg>
