<?xml version="1.0" encoding="utf-8"?>
<!-- Generator: Adobe Illustrator 24.2.1, SVG Export Plug-In . SVG Version: 6.00 Build 0)  -->
<svg version="1.1" id="Layer_1" xmlns="http://www.w3.org/2000/svg" xmlns:xlink="http://www.w3.org/1999/xlink" x="0px" y="0px"
	 viewBox="0 0 80 80" style="enable-background:new 0 0 80 80;" xml:space="preserve">
<style type="text/css">
	.st0{fill:#EE4F1A;}
</style>
<g id="esteban" transform="translate(-20.397)">
	<g id="Group_7" transform="translate(20.397)">
		<g id="Group_6">
			<path id="Path_14" class="st0" d="M60.9,41.6l-13.4-1.9l-6-12.1c-0.4-0.8-1.4-1.2-2.2-0.8c-0.3,0.2-0.6,0.4-0.8,0.8l-6,12.1
				l-13.4,1.9c-0.6,0.1-1.2,0.6-1.3,1.2c-0.2,0.6,0,1.2,0.4,1.7l9.7,9.4l-2.3,13.3c-0.1,0.6,0.2,1.3,0.7,1.7
				c0.5,0.4,1.2,0.4,1.8,0.2L40,62.6L51.9,69l0.8,0.2c0.4,0,0.7-0.1,1-0.3c0.5-0.4,0.8-1,0.7-1.7l-2.3-13.3l9.7-9.4
				c0.4-0.4,0.6-1.1,0.4-1.7C62,42.1,61.5,41.7,60.9,41.6z M49.1,52.1c-0.3,0.4-0.5,0.9-0.4,1.4l1.8,10.9l-9.8-5.1
				c-0.5-0.2-1-0.2-1.5,0l-9.8,5.1l1.8-10.9c0.1-0.5-0.1-1-0.4-1.4L23,44.4l10.9-1.6c0.5-0.1,1-0.4,1.3-0.9l4.8-9.9l4.8,9.9
				c0.3,0.5,0.7,0.8,1.3,0.9L57,44.4L49.1,52.1z"/>
			<path id="Path_15" class="st0" d="M40,22.5c0.9,0,1.7-0.7,1.7-1.7v-8.3c0-0.9-0.8-1.7-1.7-1.7c-0.9,0-1.7,0.7-1.7,1.7v8.3
				C38.3,21.8,39.1,22.5,40,22.5z"/>
			<path id="Path_16" class="st0" d="M65.2,19.7c-0.7-0.6-1.8-0.4-2.3,0.3c0,0,0,0,0,0l-5,6.7c-0.6,0.7-0.4,1.8,0.3,2.3v0
				c0.3,0.2,0.6,0.3,1,0.3c0.5,0,1-0.3,1.3-0.7l5-6.7C66.1,21.3,66,20.3,65.2,19.7z"/>
			<path id="Path_17" class="st0" d="M20.8,29.4c0.4,0,0.7-0.1,1-0.3c0.7-0.6,0.9-1.6,0.3-2.3c0,0,0,0,0,0l-5-6.7
				c-0.6-0.7-1.6-0.8-2.3-0.2c-0.7,0.5-0.8,1.5-0.3,2.2l5,6.7C19.8,29.1,20.3,29.4,20.8,29.4z"/>
		</g>
	</g>
</g>
</svg>
