<?xml version="1.0" encoding="utf-8"?>
<!-- Generator: Adobe Illustrator 24.2.1, SVG Export Plug-In . SVG Version: 6.00 Build 0)  -->
<svg version="1.1" id="Layer_1" xmlns="http://www.w3.org/2000/svg" xmlns:xlink="http://www.w3.org/1999/xlink" x="0px" y="0px"
	 viewBox="0 0 45 45" style="enable-background:new 0 0 45 45;" xml:space="preserve">
<style type="text/css">
	.st0{fill:#EE4F1A;}
</style>
<g>
	<g>
		<g>
			<path class="st0" d="M22.5,32.2c-0.4,0-0.8,0.4-0.8,0.8c0,0,0,0,0,0c0,0,0,0,0,0v0c0,0.4,0.4,0.8,0.8,0.8s0.8-0.4,0.8-0.8
				c0,0,0,0,0,0s0,0,0,0s0,0,0,0s0,0,0,0C23.3,32.6,22.9,32.2,22.5,32.2z"/>
		</g>
	</g>
	<g>
		<g>
			<path class="st0" d="M35.4,1.7H9.6c-4.4,0-8,3.6-8,8v25.7c0,4.4,3.6,8,8,8h12.9c0.4,0,0.8-0.4,0.8-0.8v-6.3
				c0-0.4-0.4-0.8-0.8-0.8s-0.8,0.4-0.8,0.8v5.5H9.6c-3.5,0-6.4-2.8-6.4-6.4V9.6c0-3.5,2.8-6.4,6.4-6.4h25.7c3.5,0,6.4,2.8,6.4,6.4
				v25.7c0,3.5-2.8,6.4-6.4,6.4h-5.2V27.3h4.7c0.4,0,0.8-0.3,0.8-0.7l0.6-5.8c0-0.2-0.1-0.5-0.2-0.6s-0.4-0.3-0.6-0.3h-5.3v-3.1
				c0-0.6,0.2-0.8,0.6-0.8h4.6c0.4,0,0.8-0.4,0.8-0.8V9.6c0-0.4-0.4-0.8-0.8-0.8h-6.1c-3.4,0-5.3,1.5-6.2,2.8
				c-1.3,1.8-1.5,3.9-1.5,5v3.4h-4c-0.4,0-0.8,0.4-0.8,0.8v5.8c0,0.4,0.4,0.8,0.8,0.8h4v2.3c0,0.4,0.4,0.8,0.8,0.8
				c0.4,0,0.8-0.4,0.8-0.8v-3.1c0-0.4-0.4-0.8-0.8-0.8h-4v-4.2h4c0.4,0,0.8-0.4,0.8-0.8v-4.2c0-1.8,0.6-6.1,6-6.1h5.3v4h-3.8
				c-1.1,0-2.3,0.6-2.3,2.4v3.9c0,0.4,0.4,0.8,0.8,0.8h5.2l-0.4,4.2h-4.8c-0.4,0-0.8,0.4-0.8,0.8v16c0,0.4,0.4,0.8,0.8,0.8h6
				c4.4,0,8-3.6,8-8V9.6C43.3,5.2,39.8,1.7,35.4,1.7z"/>
		</g>
	</g>
	<g>
		<g>
			<path class="st0" d="M6.4,10c-0.4,0-0.8,0.4-0.8,0.8v6.8c0,0.4,0.4,0.8,0.8,0.8s0.8-0.4,0.8-0.8v-6.8C7.2,10.4,6.8,10,6.4,10z"/>
		</g>
	</g>
	<g>
		<g>
			<path class="st0" d="M6.4,20.3c-0.4,0-0.8,0.4-0.8,0.8v0c0,0.4,0.4,0.8,0.8,0.8s0.8-0.4,0.8-0.8v0C7.2,20.7,6.8,20.3,6.4,20.3z"
				/>
		</g>
	</g>
</g>
</svg>
