<?xml version="1.0" encoding="utf-8"?>
<!-- Generator: Adobe Illustrator 24.2.1, SVG Export Plug-In . SVG Version: 6.00 Build 0)  -->
<svg version="1.1" id="Layer_1" xmlns="http://www.w3.org/2000/svg" xmlns:xlink="http://www.w3.org/1999/xlink" x="0px" y="0px"
	 viewBox="0 0 80 80" style="enable-background:new 0 0 80 80;" xml:space="preserve">
<style type="text/css">
	.st0{fill:#F0EEEE;}
	.st1{fill:#D9D4D4;}
	.st2{fill:#484655;}
	.st3{fill:#FA9E3E;}
	.st4{fill:#FFB56B;}
	.st5{fill:#EF9245;}
	.st6{fill:#19303F;}
	.st7{fill:#E11E1D;}
	.st8{fill:#FB403F;}
</style>
<g>
	<path class="st0" d="M46.3,56.8H31.7c-6.3,0-11.4,5.1-11.4,11.4V75c0,0.6,0.5,1.1,1.1,1.1h35.2c0.6,0,1.1-0.5,1.1-1.1v-6.8
		C57.7,61.9,52.6,56.8,46.3,56.8z"/>
	<path class="st1" d="M46.3,56.8h-3.6c6.3,0,11.4,5.1,11.4,11.4V75c0,0.6-0.5,1.1-1.1,1.1h3.6c0.6,0,1.1-0.5,1.1-1.1v-6.8
		C57.7,61.9,52.6,56.8,46.3,56.8z"/>
	<path class="st2" d="M29.2,71.8c-0.6,0-1.1-0.5-1.1-1.1v-8.5c0-0.6,0.5-1.1,1.1-1.1h7.9c0.6,0,1.1,0.5,1.1,1.1s-0.5,1.1-1.1,1.1
		h-6.8v7.4C30.3,71.3,29.8,71.8,29.2,71.8z"/>
	<path class="st3" d="M33.1,42.9v12.8c0,3.3,2.7,5.9,5.9,5.9l0,0c3.3,0,5.9-2.7,5.9-5.9V42.9H33.1z"/>
	<rect x="19.3" y="33.7" class="st2" width="39.3" height="10.1"/>
	<g>
		<path class="st3" d="M20.7,38.5h6.9v8h-6.9c-2.2,0-4-1.8-4-4C16.7,40.3,18.5,38.5,20.7,38.5z"/>
		<path class="st3" d="M57.3,38.5h-6.9v8h6.9c2.2,0,4-1.8,4-4C61.3,40.3,59.5,38.5,57.3,38.5z"/>
	</g>
	<path class="st4" d="M39,55.2L39,55.2c-8.7,0-15.8-7.1-15.8-15.8v-16h31.6v16C54.8,48.1,47.7,55.2,39,55.2z"/>
	<path class="st5" d="M51.5,23.5v17.6c0,7.5-5.9,13.7-13.3,14.1c0.3,0,0.6,0,0.8,0l0,0c8.7,0,15.8-7.1,15.8-15.8v-16H51.5z"/>
	<g>
		<path class="st6" d="M46.6,39.9c-0.6,0-1.1-0.5-1.1-1.1v-0.3c0-0.6,0.5-1.1,1.1-1.1s1.1,0.5,1.1,1.1v0.3
			C47.7,39.4,47.2,39.9,46.6,39.9z"/>
		<path class="st6" d="M31.4,39.9c-0.6,0-1.1-0.5-1.1-1.1v-0.3c0-0.6,0.5-1.1,1.1-1.1s1.1,0.5,1.1,1.1v0.3
			C32.4,39.4,32,39.9,31.4,39.9z"/>
	</g>
	<path class="st0" d="M64.3,13.8c0-5.3-5.2-9.7-11.5-9.7c-2.1,0-4.1,0.5-5.8,1.3c-2-2.2-4.9-3.5-8-3.5s-6,1.3-8,3.5
		c-1.8-0.9-3.8-1.3-5.8-1.3c-6.4,0-11.5,4.4-11.5,9.7c0,3.3,2,6.4,5.3,8.2l-0.7,11.7c0,0.6,0.4,1.1,1,1.1c6.6,0.6,13.2,0.9,19.8,0.9
		s13.2-0.3,19.8-0.9c0.6-0.1,1-0.6,1-1.1L59,21.9C62.3,20.2,64.3,17.1,64.3,13.8z"/>
	<path class="st1" d="M64.3,13.8c0-5.3-5.2-9.7-11.5-9.7c-0.2,0-0.4,0-0.6,0c4.8,1.3,8.4,5.1,8.4,9.5c0,3.4-2.1,6.6-5.5,8.4l0.7,12
		c0,0.4-0.2,0.8-0.5,1c1.1-0.1,2.3-0.2,3.4-0.3c0.6-0.1,1-0.6,1-1.1L59,21.9C62.3,20.2,64.3,17.1,64.3,13.8z"/>
	<g>
		<path class="st7" d="M38.3,58.1l-5.2-2.9c-1.1-0.6-2.4-0.4-3.4,0.4l-2.1,1.9c-0.3,0.2-0.4,0.6-0.3,1c0.1,0.4,0.3,0.7,0.6,0.8
			l8.8,4.1c0.1,0.1,0.3,0.1,0.5,0.1c0.2,0,0.4,0,0.5-0.1c0.3-0.2,0.5-0.4,0.6-0.8l0.6-3.4C38.9,58.8,38.7,58.4,38.3,58.1z"/>
		<path class="st7" d="M50.4,57.6l-2.1-1.9c-0.9-0.8-2.3-1-3.4-0.4l-5.2,2.9c-0.4,0.2-0.6,0.7-0.5,1.1l0.6,3.4
			c0.1,0.3,0.3,0.6,0.6,0.8c0.2,0.1,0.3,0.1,0.5,0.1c0.2,0,0.3,0,0.5-0.1l8.8-4.1c0.3-0.2,0.6-0.5,0.6-0.8
			C50.8,58.2,50.7,57.9,50.4,57.6z"/>
	</g>
	<g>
		<path class="st6" d="M32.5,67.5c-0.1,0-0.1,0-0.2,0c-0.1,0-0.1,0-0.2-0.1c-0.1,0-0.1-0.1-0.2-0.1c-0.1,0-0.1-0.1-0.2-0.1
			c0-0.1-0.1-0.1-0.1-0.2c0-0.1-0.1-0.1-0.1-0.2c0-0.1,0-0.1-0.1-0.2c0-0.1,0-0.1,0-0.2c0-0.3,0.1-0.6,0.3-0.8
			c0.1-0.1,0.1-0.1,0.2-0.1c0.1,0,0.1-0.1,0.2-0.1c0.1,0,0.1,0,0.2-0.1c0.1,0,0.3,0,0.4,0c0.1,0,0.1,0,0.2,0.1s0.1,0.1,0.2,0.1
			c0.1,0,0.1,0.1,0.2,0.1c0.2,0.2,0.3,0.5,0.3,0.8c0,0.1,0,0.1,0,0.2c0,0.1,0,0.1-0.1,0.2c0,0.1-0.1,0.1-0.1,0.2
			c0,0.1-0.1,0.1-0.1,0.2c-0.1,0-0.1,0.1-0.2,0.1c-0.1,0-0.1,0.1-0.2,0.1c-0.1,0-0.1,0-0.2,0.1C32.7,67.5,32.6,67.5,32.5,67.5z"/>
		<path class="st6" d="M32.5,72.2c-0.1,0-0.1,0-0.2,0c-0.1,0-0.1,0-0.2-0.1C32,72.1,32,72,31.9,72c-0.1,0-0.1-0.1-0.2-0.1
			c-0.2-0.2-0.3-0.5-0.3-0.8c0-0.1,0-0.1,0-0.2c0-0.1,0-0.1,0.1-0.2c0-0.1,0.1-0.1,0.1-0.2c0-0.1,0.1-0.1,0.1-0.2
			c0.1-0.1,0.1-0.1,0.2-0.1c0.1,0,0.1-0.1,0.2-0.1c0.1,0,0.1,0,0.2-0.1c0.1,0,0.3,0,0.4,0c0.1,0,0.1,0,0.2,0.1s0.1,0.1,0.2,0.1
			c0.1,0,0.1,0.1,0.2,0.1c0,0.1,0.1,0.1,0.1,0.2c0,0.1,0.1,0.1,0.1,0.2c0,0.1,0,0.1,0.1,0.2c0,0.1,0,0.1,0,0.2
			c0,0.3-0.1,0.6-0.3,0.8c-0.1,0-0.1,0.1-0.2,0.1c-0.1,0-0.1,0.1-0.2,0.1s-0.1,0-0.2,0.1C32.7,72.2,32.6,72.2,32.5,72.2z"/>
		<path class="st6" d="M45.5,67.5c-0.3,0-0.6-0.1-0.8-0.3c0-0.1-0.1-0.1-0.1-0.2s-0.1-0.1-0.1-0.2c0-0.1,0-0.1-0.1-0.2
			c0-0.1,0-0.1,0-0.2c0-0.1,0-0.1,0-0.2c0-0.1,0-0.1,0.1-0.2c0-0.1,0.1-0.1,0.1-0.2c0-0.1,0.1-0.1,0.1-0.2c0.2-0.2,0.5-0.3,0.8-0.3
			c0.3,0,0.6,0.1,0.8,0.3c0.1,0.1,0.1,0.1,0.1,0.2c0,0.1,0.1,0.1,0.1,0.2c0,0.1,0,0.1,0.1,0.2c0,0.1,0,0.1,0,0.2c0,0.1,0,0.1,0,0.2
			c0,0.1,0,0.1-0.1,0.2c0,0.1-0.1,0.1-0.1,0.2c0,0.1-0.1,0.1-0.1,0.2C46,67.4,45.8,67.5,45.5,67.5z"/>
		<path class="st6" d="M45.5,72.2c-0.3,0-0.6-0.1-0.8-0.3c0-0.1-0.1-0.1-0.1-0.2c0-0.1-0.1-0.1-0.1-0.2c0-0.1,0-0.1-0.1-0.2
			c0-0.1,0-0.1,0-0.2c0-0.1,0-0.1,0-0.2c0-0.1,0-0.1,0.1-0.2c0-0.1,0.1-0.1,0.1-0.2c0-0.1,0.1-0.1,0.1-0.2c0.2-0.2,0.5-0.3,0.8-0.3
			c0.3,0,0.6,0.1,0.8,0.3c0.1,0,0.1,0.1,0.1,0.2c0,0.1,0.1,0.1,0.1,0.2c0,0.1,0,0.1,0.1,0.2c0,0.1,0,0.1,0,0.2c0,0.1,0,0.1,0,0.2
			c0,0.1,0,0.1-0.1,0.2c0,0.1-0.1,0.1-0.1,0.2c0,0.1-0.1,0.1-0.1,0.2C46,72.1,45.8,72.2,45.5,72.2z"/>
	</g>
	<path class="st8" d="M42.9,71.5l-1.2-11.8c-0.1-1.2-1.1-2.1-2.4-2.1h-0.6c-1.2,0-2.3,1-2.4,2.2l-0.8,10c0,0.3,0.1,0.6,0.3,0.8
		c0.2,0.2,0.5,0.3,0.8,0.3h2.3l2.3,1.6c0.2,0.1,0.4,0.2,0.6,0.2c0.2,0,0.4,0,0.5-0.1C42.7,72.3,43,71.9,42.9,71.5z"/>
</g>
</svg>
