<?xml version="1.0" encoding="utf-8"?>
<!-- Generator: Adobe Illustrator 24.2.1, SVG Export Plug-In . SVG Version: 6.00 Build 0)  -->
<svg version="1.1" id="Layer_1" xmlns="http://www.w3.org/2000/svg" xmlns:xlink="http://www.w3.org/1999/xlink" x="0px" y="0px"
	 viewBox="0 0 80 80" style="enable-background:new 0 0 80 80;" xml:space="preserve">
<style type="text/css">
	.st0{fill:#EE4F1A;}
</style>
<g id="fede" transform="translate(0)">
	<circle id="Ellipse_1" class="st0" cx="55.5" cy="49.9" r="1"/>
	<path id="Path_28" class="st0" d="M65.1,23.8c-1.6-3.7-5.2-6.1-9.2-6.1l0,0c-1.7,0-3.3,0.4-4.7,1.2c-4.9-5.8-13.5-6.5-19.2-1.6
		c0,0,0,0,0,0c-0.8,0.7-1.5,1.4-2.1,2.3c-1.7-1.2-3.7-1.9-5.8-1.9l0,0c-5.5,0-10,4.5-10,10c0,3.9,2.3,7.4,5.8,9
		c1.2,0.5,2.4,0.8,3.7,0.9l2,27.3c0,0.5,0.5,0.9,1,0.9h27.9c0.5,0,1-0.4,1-0.9l0.8-10.5c0-0.6-0.4-1-0.9-1.1c0,0,0,0-0.1,0
		c-0.5,0-1,0.4-1,0.9l0,0l-0.4,5.4h-6.1l0.2-3.4c0.1-0.6-0.3-1.1-0.9-1.1s-1.1,0.3-1.1,0.9c0,0,0,0,0,0.1l-0.2,3.5H35.2L35,56.3
		c0-0.6-0.5-1-1-1s-1,0.5-1,1c0,0,0,0,0,0.1l0.2,3.4h-6h0l-1.6-22.2c1.1-0.2,2.1-0.5,3-1c0.5-0.3,0.7-0.9,0.4-1.4s-0.9-0.7-1.4-0.4
		c-1,0.5-2.1,0.8-3.2,0.9c-0.1,0-0.3,0-0.4,0c-4.4,0-7.9-3.6-7.9-7.9s3.6-7.9,7.9-7.9c1.7,0,3.3,0.5,4.7,1.5
		c-0.3,0.6-0.6,1.2-0.9,1.9c-0.2,0.5,0.1,1.1,0.6,1.3c0.5,0.2,1.1-0.1,1.3-0.6c0,0,0,0,0,0c0.4-0.8,0.8-1.6,1.2-2.4
		c3.5-5.4,10.7-7,16.1-3.5c1.2,0.7,2.2,1.7,3,2.8c0.6,0.9,1.2,1.9,1.6,3c0.2,0.5,0.7,0.8,1.3,0.7s0.8-0.7,0.7-1.3c0,0,0-0.1,0-0.1
		c-0.3-0.9-0.7-1.7-1.2-2.5c3.9-2,8.7-0.4,10.6,3.6s0.4,8.7-3.6,10.6c-1,0.5-2,0.8-3.1,0.8c0,0-0.3,0-0.5,0c-1.4,0-2.7-0.4-3.9-1.1
		c-0.5-0.3-1.1-0.1-1.4,0.4c-0.3,0.5-0.1,1.1,0.4,1.4c1.3,0.8,2.8,1.2,4.3,1.3l-0.5,7.7c0,0.6,0.4,1,0.9,1.1c0,0,0,0,0.1,0l0,0
		c0.5,0,1-0.4,1-0.9l0.6-7.9c5.4-0.8,9.2-5.9,8.4-11.3C65.7,25.4,65.5,24.6,65.1,23.8z M53.6,61.8l-0.1,2.1h-26l-0.2-2.1H53.6z"/>
</g>
</svg>
