<svg xmlns="http://www.w3.org/2000/svg" width="51.842" height="51.843" viewBox="0 0 51.842 51.843">
  <g id="fede" transform="translate(0)">
    <circle id="Ellipse_1" data-name="Ellipse 1" cx="1.013" cy="1.013" r="1.013" transform="translate(40.402 34.81)" fill="#ee4f1a"/>
    <path id="Path_28" data-name="Path 28" d="M51.059,9.732a9.959,9.959,0,0,0-9.181-6.085h0a9.921,9.921,0,0,0-4.741,1.2,13.652,13.652,0,0,0-19.26-1.614A13.777,13.777,0,0,0,15.747,5.5,9.939,9.939,0,0,0,9.966,3.647h0A9.967,9.967,0,0,0,5.794,22.664a9.892,9.892,0,0,0,3.714.9L11.466,50.9a1.013,1.013,0,0,0,1.01.942H40.34a1.013,1.013,0,0,0,1.01-.942L42.1,40.443a1.015,1.015,0,0,0-.938-1.084c-.024,0-.05,0-.074,0a1.017,1.017,0,0,0-1.009.941h0l-.384,5.366H33.643l.234-3.353a1.013,1.013,0,1,0-2.02-.141l-.244,3.494H21.161l-.244-3.494a1.013,1.013,0,1,0-2.02.141l.234,3.353H13.163l-.042,0L11.529,23.439a10.67,10.67,0,0,0,3.015-1.026,1.013,1.013,0,0,0-.931-1.8,8.311,8.311,0,0,1-3.223.925c-.146.007-.288.011-.425.011a7.938,7.938,0,1,1,4.7-14.333,12.266,12.266,0,0,0-.853,1.857,1.013,1.013,0,1,0,1.91.674,26.007,26.007,0,0,1,1.2-2.393,11.634,11.634,0,0,1,19.088-.668,22.9,22.9,0,0,1,1.636,2.971,1.013,1.013,0,1,0,1.9-.69,12.973,12.973,0,0,0-1.218-2.459A7.938,7.938,0,1,1,42.31,21.538c-.027,0-.344,0-.492,0a7.635,7.635,0,0,1-3.853-1.057,1.013,1.013,0,0,0-1,1.763,9.814,9.814,0,0,0,4.312,1.3L40.73,31.2a1.015,1.015,0,0,0,.938,1.084q.036,0,.073,0h0a1.016,1.016,0,0,0,1.008-.942l.564-7.872A9.971,9.971,0,0,0,51.059,9.732ZM39.549,47.691,39.4,49.815H13.418l-.152-2.124Z" transform="translate(0 0)" fill="#ee4f1a"/>
  </g>
</svg>
