<?xml version="1.0" encoding="utf-8"?>
<!-- Generator: Adobe Illustrator 24.2.1, SVG Export Plug-In . SVG Version: 6.00 Build 0)  -->
<svg version="1.1" id="Instagram_Icon" xmlns="http://www.w3.org/2000/svg" xmlns:xlink="http://www.w3.org/1999/xlink" x="0px"
	 y="0px" viewBox="0 0 45 45" style="enable-background:new 0 0 45 45;" xml:space="preserve">
<style type="text/css">
	.st0{fill:#EE4F1A;}
</style>
<g>
	<g>
		<g>
			<path class="st0" d="M33,1.5H12C6.2,1.5,1.5,6.2,1.5,12v21c0,5.8,4.7,10.5,10.5,10.5h6c0.5,0,1-0.4,1-1s-0.4-1-1-1h-6
				c-4.7,0-8.5-3.8-8.5-8.5V12c0-4.7,3.8-8.5,8.5-8.5h21c4.7,0,8.5,3.8,8.5,8.5v21c0,4.7-3.8,8.5-8.5,8.5h-6c-0.5,0-1,0.4-1,1
				s0.4,1,1,1h6c5.8,0,10.5-4.7,10.5-10.5V12C43.5,6.2,38.8,1.5,33,1.5z"/>
		</g>
	</g>
	<g>
		<g>
			<path class="st0" d="M23.2,41.8c-0.2-0.2-0.4-0.3-0.7-0.3s-0.5,0.1-0.7,0.3s-0.3,0.4-0.3,0.7s0.1,0.5,0.3,0.7
				c0.2,0.2,0.4,0.3,0.7,0.3s0.5-0.1,0.7-0.3c0.2-0.2,0.3-0.4,0.3-0.7S23.4,42,23.2,41.8z"/>
		</g>
	</g>
	<g>
		<g>
			<path class="st0" d="M14.5,12.6c-0.4-0.4-1-0.4-1.4,0l0,0c-0.4,0.4-0.4,1,0,1.4c0.2,0.2,0.5,0.3,0.7,0.3c0.2,0,0.5-0.1,0.7-0.3
				l0,0C14.9,13.6,14.9,13,14.5,12.6z"/>
		</g>
	</g>
	<g>
		<g>
			<path class="st0" d="M22.5,8.8c-2.2,0-4.3,0.5-6.3,1.5c-0.5,0.3-0.7,0.8-0.4,1.3c0.3,0.5,0.8,0.7,1.3,0.4
				c1.7-0.9,3.5-1.3,5.4-1.3c6.5,0,11.7,5.2,11.7,11.7S29,34.2,22.5,34.2S10.8,29,10.8,22.5c0-2,0.5-4,1.5-5.8
				c0.3-0.5,0.1-1.1-0.4-1.4c-0.5-0.3-1.1-0.1-1.4,0.4c-1.2,2-1.8,4.4-1.8,6.7c0,7.5,6.1,13.7,13.7,13.7S36.2,30,36.2,22.5
				S30,8.8,22.5,8.8z"/>
		</g>
	</g>
	<g>
		<g>
			<path class="st0" d="M22.5,13.6c-4.9,0-8.9,4-8.9,8.9s4,8.9,8.9,8.9s8.9-4,8.9-8.9S27.4,13.6,22.5,13.6z M22.5,29.4
				c-3.8,0-6.9-3.1-6.9-6.9s3.1-6.9,6.9-6.9s6.9,3.1,6.9,6.9S26.3,29.4,22.5,29.4z"/>
		</g>
	</g>
	<g>
		<g>
			<path class="st0" d="M35.5,5.7c-2.1,0-3.8,1.7-3.8,3.8s1.7,3.8,3.8,3.8s3.8-1.7,3.8-3.8S37.6,5.7,35.5,5.7z M35.5,11.3
				c-1,0-1.8-0.8-1.8-1.8s0.8-1.8,1.8-1.8s1.8,0.8,1.8,1.8S36.5,11.3,35.5,11.3z"/>
		</g>
	</g>
</g>
</svg>
