<?xml version="1.0" encoding="utf-8"?>
<!-- Generator: Adobe Illustrator 24.2.1, SVG Export Plug-In . SVG Version: 6.00 Build 0)  -->
<svg version="1.1" id="Instagram_Icon" xmlns="http://www.w3.org/2000/svg" xmlns:xlink="http://www.w3.org/1999/xlink" x="0px"
	 y="0px" viewBox="0 0 45 45" style="enable-background:new 0 0 45 45;" xml:space="preserve">
<style type="text/css">
	.st0{fill:#EE4F1A;}
</style>
<path class="st0" d="M22.9,44c-0.1,0-0.3,0-0.4,0c-3.4,0-6.5-0.1-9.5-0.3c-2.8-0.2-5.3-1.1-7.3-2.8c-1.9-1.6-3.3-3.7-3.9-6.4
	c-0.6-2.3-0.6-4.6-0.6-6.7c0-1.6,0-3.4,0-5.3c0-1.9,0-3.8,0-5.3c0-2.2,0.1-4.4,0.6-6.7c0.7-2.6,2-4.8,3.9-6.4c2-1.6,4.5-2.6,7.3-2.8
	C16,1.1,19.1,1,22.5,1C25.9,1,29,1.1,32,1.3c2.8,0.2,5.3,1.1,7.3,2.8c1.9,1.6,3.3,3.7,3.9,6.4c0.6,2.3,0.6,4.6,0.6,6.7
	c0,1.6,0,3.4,0,5.3v0c0,1.9,0,3.7,0,5.3c0,2.2-0.1,4.4-0.6,6.7c-0.7,2.6-2,4.8-3.9,6.4c-2,1.6-4.5,2.6-7.3,2.8
	C29.1,43.9,26.1,44,22.9,44z M22.5,40.6c3.3,0,6.4-0.1,9.3-0.3c2.1-0.1,3.9-0.8,5.4-2c1.4-1.1,2.3-2.7,2.8-4.6c0.5-1.9,0.5-4,0.5-6
	c0-1.6,0-3.4,0-5.3c0-1.9,0-3.7,0-5.3c0-2-0.1-4-0.5-6c-0.5-1.9-1.4-3.5-2.8-4.6c-1.5-1.2-3.3-1.9-5.4-2c-3-0.2-6-0.3-9.3-0.3
	c-3.3,0-6.4,0.1-9.3,0.3c-2.1,0.1-3.9,0.8-5.4,2C6.4,7.8,5.5,9.3,5,11.3c-0.5,1.9-0.5,4-0.5,6c0,1.6,0,3.4,0,5.3c0,1.9,0,3.7,0,5.3
	c0,2,0.1,4,0.5,6c0.5,1.9,1.4,3.5,2.8,4.6c1.5,1.2,3.3,1.9,5.4,2C16.2,40.5,19.2,40.6,22.5,40.6z M22.4,33
	c-5.8,0-10.5-4.7-10.5-10.5S16.6,12,22.4,12c5.8,0,10.5,4.7,10.5,10.5S28.2,33,22.4,33z M22.4,15.4c-3.9,0-7.1,3.2-7.1,7.1
	s3.2,7.1,7.1,7.1c3.9,0,7.1-3.2,7.1-7.1S26.3,15.4,22.4,15.4z M34.1,8.7c-1.4,0-2.5,1.1-2.5,2.5s1.1,2.5,2.5,2.5
	c1.4,0,2.5-1.1,2.5-2.5S35.5,8.7,34.1,8.7z"/>
</svg>
