<svg id="Instagram_Icon" data-name="Instagram Icon" xmlns="http://www.w3.org/2000/svg" width="45" height="45" viewBox="0 0 45 45">
  <path id="Path_3" data-name="Path 3" d="M22.5,4a68.99,68.99,0,0,1,9,.25A11.6,11.6,0,0,1,35.75,5,8.78,8.78,0,0,1,40,9.25a11.6,11.6,0,0,1,.75,4.25c0,2.25.25,3,.25,9a68.99,68.99,0,0,1-.25,9A11.6,11.6,0,0,1,40,35.75,8.78,8.78,0,0,1,35.75,40a11.6,11.6,0,0,1-4.25.75c-2.25,0-3,.25-9,.25a68.99,68.99,0,0,1-9-.25A11.6,11.6,0,0,1,9.25,40,8.78,8.78,0,0,1,5,35.75a11.6,11.6,0,0,1-.75-4.25c0-2.25-.25-3-.25-9a68.99,68.99,0,0,1,.25-9A11.6,11.6,0,0,1,5,9.25a8.979,8.979,0,0,1,1.75-2.5A4.227,4.227,0,0,1,9.25,5a11.6,11.6,0,0,1,4.25-.75,68.99,68.99,0,0,1,9-.25m0-4a73.868,73.868,0,0,0-9.25.25,15.434,15.434,0,0,0-5.5,1,9.787,9.787,0,0,0-4,2.5,9.787,9.787,0,0,0-2.5,4,11.391,11.391,0,0,0-1,5.5A73.868,73.868,0,0,0,0,22.5a73.868,73.868,0,0,0,.25,9.25,15.434,15.434,0,0,0,1,5.5,9.787,9.787,0,0,0,2.5,4,9.787,9.787,0,0,0,4,2.5,15.434,15.434,0,0,0,5.5,1A73.868,73.868,0,0,0,22.5,45a73.868,73.868,0,0,0,9.25-.25,15.434,15.434,0,0,0,5.5-1,10.489,10.489,0,0,0,6.5-6.5,15.434,15.434,0,0,0,1-5.5c0-2.5.25-3.25.25-9.25a73.868,73.868,0,0,0-.25-9.25,15.434,15.434,0,0,0-1-5.5,9.787,9.787,0,0,0-2.5-4,9.787,9.787,0,0,0-4-2.5,15.434,15.434,0,0,0-5.5-1A73.868,73.868,0,0,0,22.5,0m0,11A11.315,11.315,0,0,0,11,22.5,11.5,11.5,0,1,0,22.5,11m0,19A7.366,7.366,0,0,1,15,22.5,7.366,7.366,0,0,1,22.5,15,7.366,7.366,0,0,1,30,22.5,7.366,7.366,0,0,1,22.5,30m12-22.25a2.75,2.75,0,1,0,2.75,2.75A2.774,2.774,0,0,0,34.5,7.75" fill="#ee4f1a" fill-rule="evenodd"/>
</svg>
