<svg xmlns="http://www.w3.org/2000/svg" width="66" height="66.011" viewBox="0 0 66 66.011">
  <g id="Javi" transform="translate(-0.042)">
    <path id="Path_21" data-name="Path 21" d="M39.64,4.535,4.566,39.608A15.47,15.47,0,1,0,26.444,61.487L61.518,26.413A15.47,15.47,0,0,0,39.64,4.535ZM50.579,31.883l-2.735-2.735,1.367-1.367h0l1.367-1.366,2.735,2.735Zm-6.837-1.367,4.1,4.1-13.2,13.2-4.1-4.1a1.934,1.934,0,0,0-2.735,0l-1.367,1.367-5.47-5.47,1.367-1.367a1.934,1.934,0,0,0,0-2.735l-4.1-4.1,13.2-13.2,4.1,4.1a1.933,1.933,0,0,0,2.735,0l1.367-1.367,5.47,5.47-1.367,1.367a1.933,1.933,0,0,0,0,2.735ZM29.179,53.282l-2.735-2.735,2.735-2.735,2.735,2.735ZM15.505,34.139l2.735,2.735L16.874,38.24h0l-1.367,1.366L12.77,36.874Zm21.4-15.93L34.17,15.474,36.9,12.739l2.735,2.735ZM23.71,58.752A11.6,11.6,0,0,1,7.3,42.343l2.735-2.735,4.1,4.1a1.934,1.934,0,0,0,2.735,0l1.367-1.367,5.47,5.47c-.954,1.1-1.934,1.514-1.934,2.735a1.933,1.933,0,0,0,.566,1.367l4.1,4.1ZM58.783,23.678l-2.735,2.735-4.1-4.1a1.934,1.934,0,0,0-2.735,0l-1.367,1.367-5.47-5.47,1.367-1.367a1.933,1.933,0,0,0,0-2.735l-4.1-4.1,2.735-2.735A11.6,11.6,0,0,1,58.783,23.678Z" fill="#ee4f1a"/>
  </g>
</svg>
