<?xml version="1.0" encoding="utf-8"?>
<!-- Generator: Adobe Illustrator 24.2.1, SVG Export Plug-In . SVG Version: 6.00 Build 0)  -->
<svg version="1.1" id="Layer_1" xmlns="http://www.w3.org/2000/svg" xmlns:xlink="http://www.w3.org/1999/xlink" x="0px" y="0px"
	 viewBox="0 0 80 80" style="enable-background:new 0 0 80 80;" xml:space="preserve">
<style type="text/css">
	.st0{fill:#484655;}
	.st1{fill:#19303F;}
	.st2{fill:#35343F;}
	.st3{fill:#FFB56B;}
	.st4{fill:url(#SVGID_1_);}
	.st5{fill:url(#SVGID_2_);}
	.st6{fill:url(#SVGID_3_);}
	.st7{fill:url(#SVGID_4_);}
	.st8{fill:url(#SVGID_5_);}
	.st9{fill:url(#SVGID_6_);}
	.st10{fill:url(#SVGID_7_);}
</style>
<g>
	<path class="st0" d="M47.7,52.4c-1.2-0.8-2.6-1.3-4-1.6c-0.8-0.2-1.7-0.3-2.6-0.3H25.6c-0.9,0-1.7,0.1-2.6,0.3
		c-1.4,0.3-2.8,0.9-4,1.6c-3.5,2.3-5.6,6.1-5.6,10.3v9.7c0,0.6,0.5,1.1,1.1,1.1h37.8c0.6,0,1.1-0.5,1.1-1.1v-9.7
		C53.4,58.5,51.3,54.7,47.7,52.4z"/>
	<path class="st1" d="M34.5,73.5V56.1c0-0.6-0.5-1.1-1.1-1.1s-1.1,0.5-1.1,1.1v17.4H34.5z"/>
	<g>
		<path class="st2" d="M47.7,52.4c-1.2-0.8-2.6-1.3-4-1.6c-0.8-0.2-1.7-0.3-2.6-0.3H37c0.9,0,1.7,0.1,2.6,0.3c1.4,0.3,2.7,0.9,4,1.6
			c3.5,2.3,5.6,6.1,5.6,10.3v9.7c0,0.6-0.5,1.1-1.1,1.1h4.2c0.6,0,1.1-0.5,1.1-1.1v-9.7C53.4,58.5,51.3,54.7,47.7,52.4z"/>
		<path class="st2" d="M39.6,37.5v13.7c0,0.2-0.1,0.4-0.2,0.6l-2.9,3.8c-0.2,0.3-0.5,0.4-0.8,0.4h-4.5c-0.3,0-0.6-0.1-0.8-0.4
			l-2.9-3.8c-0.1-0.2-0.2-0.4-0.2-0.6V37.5H39.6z"/>
	</g>
	<path class="st0" d="M52.9,26.3L52.9,26.3c-0.5-0.5-0.7-1.1-0.7-1.7V23c0-10.4-8.4-18.8-18.8-18.8l0,0C23,4.3,14.6,12.7,14.6,23
		v1.5c0,0.6-0.3,1.3-0.7,1.7l0,0c-0.6,0.5-0.8,1.3-0.7,2.1l0.9,5.8c0.3,2.1,1.5,4,3.2,5.2l0,0c3.3,5.5,9.3,9.2,16.1,9.2l0,0
		c6.9,0,12.9-3.7,16.1-9.2l0,0c1.7-1.3,2.8-3.2,3.2-5.2l0.9-5.8C53.7,27.6,53.4,26.8,52.9,26.3z"/>
	<path class="st3" d="M28.4,19.7c-5.6,0-10.1,4.5-10.1,10.1v1.7c0,9.4,6.7,17.1,15.1,17.1S48.4,41,48.4,31.5v-1.7
		c0-5.6-4.5-10.1-10.1-10.1H28.4L28.4,19.7z"/>
	<g>
		<path class="st1" d="M41.6,31.9c-0.6,0-1.1-0.5-1.1-1.1v-0.3c0-0.6,0.5-1.1,1.1-1.1c0.6,0,1.1,0.5,1.1,1.1v0.3
			C42.8,31.4,42.3,31.9,41.6,31.9z"/>
		<path class="st1" d="M25.1,31.9c-0.6,0-1.1-0.5-1.1-1.1v-0.3c0-0.6,0.5-1.1,1.1-1.1c0.6,0,1.1,0.5,1.1,1.1v0.3
			C26.2,31.4,25.7,31.9,25.1,31.9z"/>
	</g>
	<g>
		
			<linearGradient id="SVGID_1_" gradientUnits="userSpaceOnUse" x1="-29.546" y1="-62.4615" x2="-18.5176" y2="-62.4615" gradientTransform="matrix(0.9855 0.1903 0.1903 -0.9855 91.9164 -12.2452)">
			<stop  offset="0" style="stop-color:#48B2E3"/>
			<stop  offset="1" style="stop-color:#0095FF"/>
		</linearGradient>
		<path class="st4" d="M64.8,51.8c-3.3,17.1-9.3,24.9-14.7,23.9c-5.4-1-8-10.5-4.7-27.6c0.2-1.2,0.5-2.4,0.8-3.6
			c0.4-1.6,1.8-2.3,2.2-3.9c0.5-1.7,0-4.4,0.5-6.1c0.5-1.6,1-3.1,1.6-4.6c0.6-1.5,3.2-0.9,3.8-2.3c0.6-1.4-0.8-4.8-0.1-6
			c2.7-5.2,5.6-8.3,7.9-7.9c2.3,0.5,3.8,4.5,4.4,10.3c0.2,1.5-1.1,3.3-1.1,5c0,1.4,1.4,2.5,1.4,4c0,1.6-0.1,3.2-0.2,4.8
			c-0.1,1.7-2,3.5-2.2,5.2s1.3,3.4,1.1,5.1C65.3,49.4,65.1,50.6,64.8,51.8z"/>
		
			<linearGradient id="SVGID_2_" gradientUnits="userSpaceOnUse" x1="-19.6551" y1="-63.0251" x2="-33.43" y2="-61.3145" gradientTransform="matrix(0.9855 0.1903 0.1903 -0.9855 91.9164 -12.2452)">
			<stop  offset="0" style="stop-color:#0095FF;stop-opacity:0"/>
			<stop  offset="1" style="stop-color:#03232E"/>
		</linearGradient>
		<path class="st5" d="M64.8,51.8c3.3-17.1,2.6-37-2.7-38L50.1,75.6C55.5,76.7,61.5,68.9,64.8,51.8L64.8,51.8z"/>
		
			<linearGradient id="SVGID_3_" gradientUnits="userSpaceOnUse" x1="-32.5416" y1="-49.2943" x2="-15.9945" y2="-49.2943" gradientTransform="matrix(0.9855 0.1903 0.1903 -0.9855 91.9164 -12.2452)">
			<stop  offset="0" style="stop-color:#FFDA2D"/>
			<stop  offset="1" style="stop-color:#FDBF00"/>
		</linearGradient>
		<path class="st6" d="M66.8,33L58,40.3c-0.7,0.5-1.7,0.4-2.1-0.4l-5.4-10c1.2-3.1,2.4-5.9,3.7-8.3l4.1,7.5c0.3,0.6,1.1,0.7,1.6,0.3
			l6.6-5.5C66.8,26.7,66.9,29.8,66.8,33L66.8,33z"/>
		
			<linearGradient id="SVGID_4_" gradientUnits="userSpaceOnUse" x1="-34.0629" y1="-64.5142" x2="-14.4683" y2="-64.5142" gradientTransform="matrix(0.9855 0.1903 0.1903 -0.9855 91.9164 -12.2452)">
			<stop  offset="0" style="stop-color:#FFDA2D"/>
			<stop  offset="1" style="stop-color:#FDBF00"/>
		</linearGradient>
		<path class="st7" d="M65.5,48.2L54.8,57c-0.7,0.5-1.7,0.4-2.1-0.4l-6.6-12.1c0.8-3.4,1.7-6.8,2.8-10l6.2,11.3
			c0.3,0.6,1.1,0.7,1.6,0.3l9.9-8.2C66.4,41.2,66,44.7,65.5,48.2L65.5,48.2z"/>
		<g>
			
				<linearGradient id="SVGID_5_" gradientUnits="userSpaceOnUse" x1="-17.8648" y1="-49.7962" x2="-25.5175" y2="-48.6257" gradientTransform="matrix(0.9855 0.1903 0.1903 -0.9855 91.9164 -12.2452)">
				<stop  offset="0" style="stop-color:#FF9100;stop-opacity:0"/>
				<stop  offset="1" style="stop-color:#FF9100"/>
			</linearGradient>
			<path class="st8" d="M66.8,33L58,40.3c-0.3,0.3-0.7,0.4-1.1,0.3L59,29.7c0.3,0.1,0.6,0,0.9-0.2l6.6-5.5
				C66.8,26.7,66.9,29.8,66.8,33L66.8,33z"/>
			
				<linearGradient id="SVGID_6_" gradientUnits="userSpaceOnUse" x1="-20.1079" y1="-64.463" x2="-27.7607" y2="-63.2926" gradientTransform="matrix(0.9855 0.1903 0.1903 -0.9855 91.9164 -12.2452)">
				<stop  offset="0" style="stop-color:#FF9100;stop-opacity:0"/>
				<stop  offset="1" style="stop-color:#FF9100"/>
			</linearGradient>
			<path class="st9" d="M65.5,48.2L54.8,57c-0.3,0.3-0.7,0.4-1.1,0.3l2.1-10.9c0.3,0.1,0.6,0,0.9-0.2l9.9-8.2
				C66.4,41.2,66,44.7,65.5,48.2L65.5,48.2z"/>
		</g>
		
			<linearGradient id="SVGID_7_" gradientUnits="userSpaceOnUse" x1="-25.2171" y1="-84.7045" x2="-22.6582" y2="-84.7045" gradientTransform="matrix(0.9855 0.1903 0.1903 -0.9855 91.9164 -12.2452)">
			<stop  offset="0" style="stop-color:#FF9100"/>
			<stop  offset="1" style="stop-color:#E63950"/>
		</linearGradient>
		<path class="st10" d="M53.4,68c-0.7,3.6-1.8,5.2-2.8,5.1c-1-0.2-1.4-2.1-0.7-5.7c0.7-3.6,2.2-7.4,3.2-7.2S54.1,64.5,53.4,68
			L53.4,68z"/>
	</g>
</g>
</svg>
