<?xml version="1.0" encoding="utf-8"?>
<!-- Generator: Adobe Illustrator 24.2.1, SVG Export Plug-In . SVG Version: 6.00 Build 0)  -->
<svg version="1.1" id="Layer_1" xmlns="http://www.w3.org/2000/svg" xmlns:xlink="http://www.w3.org/1999/xlink" x="0px" y="0px"
	 viewBox="0 0 80 80" style="enable-background:new 0 0 80 80;" xml:space="preserve">
<style type="text/css">
	.st0{fill:#EE4F1A;}
</style>
<g id="Javi" transform="translate(-0.042)">
	<path id="Path_21" class="st0" d="M46.6,11.5L11.6,46.6c-6,6-6,15.8,0,21.9s15.8,6,21.9,0l35.1-35.1c6-6,6-15.8,0-21.9
		C62.5,5.5,52.7,5.5,46.6,11.5L46.6,11.5z M57.6,38.9l-2.7-2.7l1.4-1.4l0,0l1.4-1.4l2.7,2.7L57.6,38.9z M50.7,37.5l4.1,4.1
		L41.6,54.8l-4.1-4.1c-0.8-0.8-2-0.8-2.7,0l-1.4,1.4L28,46.6l1.4-1.4c0.8-0.8,0.8-2,0-2.7l-4.1-4.1l13.2-13.2l4.1,4.1
		c0.8,0.8,2,0.8,2.7,0c0,0,0,0,0,0l1.4-1.4l5.5,5.5l-1.4,1.4C50,35.5,50,36.8,50.7,37.5C50.7,37.5,50.7,37.5,50.7,37.5z M36.2,60.3
		l-2.7-2.7l2.7-2.7l2.7,2.7L36.2,60.3z M22.5,41.1l2.7,2.7l-1.4,1.4l0,0l-1.4,1.4l-2.7-2.7L22.5,41.1z M43.9,25.2l-2.7-2.7l2.7-2.7
		l2.7,2.7L43.9,25.2z M30.7,65.7c-4.5,4.5-11.9,4.5-16.4,0s-4.5-11.9,0-16.4l0,0l2.7-2.7l4.1,4.1c0.8,0.8,2,0.8,2.7,0l1.4-1.4
		l5.5,5.5c-1,1.1-1.9,1.5-1.9,2.7c0,0.5,0.2,1,0.6,1.4l4.1,4.1L30.7,65.7z M65.8,30.7L63,33.4l-4.1-4.1c-0.8-0.8-2-0.8-2.7,0
		l-1.4,1.4l-5.5-5.5l1.4-1.4c0.8-0.8,0.8-2,0-2.7c0,0,0,0,0,0L46.6,17l2.7-2.7c4.5-4.5,11.9-4.5,16.4,0
		C70.3,18.8,70.3,26.1,65.8,30.7z"/>
</g>
</svg>
