<?xml version="1.0" encoding="utf-8"?>
<!-- Generator: Adobe Illustrator 24.2.1, SVG Export Plug-In . SVG Version: 6.00 Build 0)  -->
<svg version="1.1" id="Layer_1" xmlns="http://www.w3.org/2000/svg" xmlns:xlink="http://www.w3.org/1999/xlink" x="0px" y="0px"
	 viewBox="0 0 80 80" style="enable-background:new 0 0 80 80;" xml:space="preserve">
<style type="text/css">
	.st0{fill:#EE4F1A;}
</style>
<g id="Jota" transform="translate(0 -92.536)">
	<g id="Group_15" transform="translate(0 92.536)">
		<path id="Path_22" class="st0" d="M70.2,31.1L70.2,31.1l-18,0l-14.5-12c-1.5-1.2-3.3-1.9-5.3-1.9h-3.3c-1.8,0-3.3,1.5-3.3,3.3
			c0,0.7,0.2,1.4,0.7,2l6.6,8.5l-16,0c-0.7,0-1.4-0.4-1.7-1c0-0.1-0.1-0.2-0.2-0.2l-4.7-5.7c-1.7-2-4.7-2.3-6.8-0.7
			c-1.7,1.4-2.2,3.7-1.3,5.7l5,10.9c0.7,1.8,2.3,3,4.2,3.3l0,0l21.9,2.4L23,57.3l0,0c-1.2,1.4-1,3.5,0.3,4.7
			c0.6,0.5,1.4,0.8,2.1,0.8h4.9c2,0,3.9-0.7,5.4-2L52,47.5l18.1,0.3h0c4.5-0.1,8-3.9,7.8-8.3C78,34.8,74.6,31.1,70.2,31.1z
			 M29.1,20.5h3.3c1.2,0,2.3,0.4,3.2,1.1L47,31.1l-9.7,0L29.1,20.5z M70.2,44.5l-18.7-0.3c-0.4,0-0.8,0.1-1.1,0.4L33.6,58.2l0,0
			c-0.9,0.8-2,1.2-3.2,1.2h-4.8l12.8-13.9c0.6-0.7,0.6-1.7-0.1-2.3c-0.3-0.2-0.6-0.4-0.9-0.4L12.1,40c-0.7-0.1-1.3-0.6-1.5-1.3
			c0,0,0-0.1,0-0.1l-5-10.9c-0.4-0.8,0-1.7,0.7-2c0.6-0.3,1.4-0.1,1.8,0.4l4.6,5.6c0.9,1.6,2.6,2.5,4.5,2.5l53.1,0.1l0,0
			c2.6,0.1,4.7,2.4,4.5,5c0,0,0,0,0,0.1C74.8,42.1,72.8,44.3,70.2,44.5z"/>
	</g>
</g>
</svg>
