<?xml version="1.0" encoding="utf-8"?>
<!-- Generator: Adobe Illustrator 24.2.1, SVG Export Plug-In . SVG Version: 6.00 Build 0)  -->
<svg version="1.1" id="Layer_1" xmlns="http://www.w3.org/2000/svg" xmlns:xlink="http://www.w3.org/1999/xlink" x="0px" y="0px"
	 viewBox="0 0 80 80" style="enable-background:new 0 0 80 80;" xml:space="preserve">
<style type="text/css">
	.st0{fill:#E7CF90;}
	.st1{fill:#B19D7D;}
	.st2{fill:#968163;}
	.st3{fill:#CCB89B;}
	.st4{fill:#484655;}
	.st5{fill:#FB403F;}
	.st6{fill:#696970;}
	.st7{fill:#35343F;}
	.st8{fill:#5880A2;}
</style>
<g>
	<path class="st0" d="M40,2.2c-13.8,0-25.1,11.2-25.1,25.1V30c0,9.6,7.8,21.1,17.4,21.1h15.3c9.6,0,17.4-11.5,17.4-21.1v-2.7
		C65.1,13.5,53.8,2.2,40,2.2z"/>
	<path class="st1" d="M47.8,54.8H32.2C25.4,54.8,20,60.2,20,67v9.7c0,0.6,0.5,1.1,1.1,1.1h37.9c0.6,0,1.1-0.5,1.1-1.1V67
		C60,60.2,54.6,54.8,47.8,54.8z"/>
	<path class="st2" d="M35.8,54.8H32c6.7,0,12.2,5.5,12.2,12.2v9.7c0,0.6-0.5,1.1-1.1,1.1h3.8c0.6,0,1.1-0.5,1.1-1.1V67
		C48,60.2,42.5,54.8,35.8,54.8z"/>
	<path class="st3" d="M53.8,56.2l-4.7-6.8c-0.2-0.3-0.4-0.4-0.7-0.5c-0.3,0-0.6,0-0.9,0.2L40,55l-7.6-5.9c-0.2-0.2-0.5-0.3-0.9-0.2
		c-0.3,0-0.6,0.2-0.7,0.5l-4.7,6.8c-0.3,0.4-0.3,1,0.1,1.4l4.7,5.2c0.2,0.2,0.5,0.4,0.8,0.4c0.2,0,0.5-0.1,0.7-0.2L40,57l7.6,5.9
		c0.2,0.2,0.4,0.2,0.7,0.2c0.3,0,0.6-0.1,0.8-0.4l4.7-5.2C54.1,57.2,54.1,56.6,53.8,56.2z"/>
	<g>
		<path class="st4" d="M56.3,8.2c-1.3-1.1-2.7-2.1-4.2-2.9V24h4.2V8.2z"/>
		<path class="st4" d="M23.7,8.2V24h4.2V5.3C26.4,6.1,25,7.1,23.7,8.2z"/>
	</g>
	<path class="st5" d="M40,2.2c-1.2,0-2.4,0.1-3.6,0.3l1,20.5h5.3l1-20.5C42.4,2.3,41.2,2.2,40,2.2z"/>
	<path class="st6" d="M47.5,33.2h-15l-3.4,13.2c-0.5,1.8,0.1,3.8,1.4,5.1l6.8,6.6h5.3l6.8-6.6c1.4-1.3,1.9-3.3,1.4-5.1L47.5,33.2z"
		/>
	<path class="st4" d="M44.1,77.8v-22c0-2.3-1.8-4.1-4.1-4.1s-4.1,1.8-4.1,4.1v22H44.1z"/>
	<g>
		<path class="st7" d="M40,57.6c-2.3,0-4.1,1.8-4.1,4.1v2.9c0-2.3,1.8-4.1,4.1-4.1s4.1,1.8,4.1,4.1v-2.9
			C44.1,59.4,42.3,57.6,40,57.6z"/>
		<path class="st7" d="M40,64.7c-2.3,0-4.1,1.8-4.1,4.1v2.9c0-2.3,1.8-4.1,4.1-4.1s4.1,1.8,4.1,4.1v-2.9
			C44.1,66.6,42.3,64.7,40,64.7z"/>
		<path class="st7" d="M40,71.9c-2.3,0-4.1,1.8-4.1,4.1v1.8H36c0.5-1.7,2.1-3,4-3c1.9,0,3.5,1.3,4,3h0.1V76
			C44.1,73.7,42.3,71.9,40,71.9z"/>
	</g>
	<path class="st8" d="M60.9,18.7c-13.9-3.4-28-3.4-41.9,0c-2.8,0.7-4.7,3.1-4.7,6v6.5c0,2,0.8,3.8,2.2,5.2c6.3,6.3,11,7.9,13.3,8.3
		c3.8,0.6,5.4-2.3,6.8-4.6c1.2-2.1,2-3.3,3.4-3.3c0.9,0,1.7,0.2,3.4,3.3c1.2,2.1,2.7,4.7,5.7,4.7c0.3,0,0.7,0,1-0.1
		c2.2-0.4,7-2,13.3-8.3c1.4-1.4,2.2-3.3,2.2-5.2v-6.5C65.7,21.8,63.7,19.3,60.9,18.7z"/>
	<g>
		<path class="st7" d="M46.4,49.9c-0.3,0-0.7-0.2-0.9-0.5l-1.9-2.6c-0.4-0.5-0.3-1.2,0.2-1.5c0.5-0.4,1.2-0.3,1.5,0.2l1.9,2.6
			c0.4,0.5,0.3,1.2-0.2,1.5C46.9,49.8,46.7,49.9,46.4,49.9z"/>
		<path class="st7" d="M33.6,49.9c-0.2,0-0.5-0.1-0.7-0.2c-0.5-0.4-0.6-1.1-0.2-1.5l1.9-2.6c0.4-0.5,1.1-0.6,1.5-0.2
			c0.5,0.4,0.6,1.1,0.2,1.5l-1.9,2.6C34.2,49.8,33.9,49.9,33.6,49.9z"/>
	</g>
	<path class="st0" d="M43.1,66.8h-6.2c-0.5,0-0.9,0.4-0.9,0.9v2.6c0,0.3,0.2,0.6,0.4,0.7l1.8,1.2c0.1,0.1,0.3,0.1,0.5,0.1h2.5
		c0.2,0,0.3,0,0.5-0.1l1.8-1.2c0.2-0.2,0.4-0.4,0.4-0.7v-2.6C43.9,67.2,43.6,66.8,43.1,66.8z"/>
</g>
</svg>
