<svg xmlns="http://www.w3.org/2000/svg" width="76" height="45.494" viewBox="0 0 76 45.494">
  <g id="Jota" transform="translate(0 -92.536)">
    <g id="Group_15" data-name="Group 15" transform="translate(0 92.536)">
      <path id="Path_22" data-name="Path 22" d="M68.176,106.429h0L50.224,106.4,35.676,94.432a8.258,8.258,0,0,0-5.26-1.9h-3.3a3.3,3.3,0,0,0-2.6,5.322l6.632,8.512-16.038-.026a1.961,1.961,0,0,1-1.7-1.032,1.648,1.648,0,0,0-.161-.233L8.521,99.372a4.811,4.811,0,0,0-8.077,5.083l5.021,10.88A5.3,5.3,0,0,0,9.638,118.6l.041.005,21.9,2.359L20.985,132.541l-.028.032a3.3,3.3,0,0,0,2.489,5.457H28.3a8.244,8.244,0,0,0,5.366-1.985l16.377-13.274,18.1.328h.03A8.1,8.1,0,0,0,76,114.764C76,110.091,72.563,106.431,68.176,106.429Zm-41.063-10.6h3.3a4.959,4.959,0,0,1,3.161,1.141l11.448,9.418-9.7-.015ZM68.186,119.8,49.5,119.464a1.651,1.651,0,0,0-1.068.368L31.567,133.5l-.039.033a4.945,4.945,0,0,1-3.232,1.2H23.447L36.21,120.787a1.648,1.648,0,0,0-1.039-2.752l-25.114-2.707a1.973,1.973,0,0,1-1.548-1.261c-.011-.026-.022-.053-.033-.078L3.438,103.073a1.515,1.515,0,0,1,2.543-1.6l4.64,5.609a5.189,5.189,0,0,0,4.482,2.536l53.069.061h0a4.775,4.775,0,0,1,4.53,5.062A4.835,4.835,0,0,1,68.186,119.8Z" transform="translate(0 -92.536)" fill="#ee4f1a"/>
    </g>
  </g>
</svg>
