<svg id="logo_abstemio" data-name="logo abstemio" xmlns="http://www.w3.org/2000/svg" width="36.077" height="36.077" viewBox="0 0 36.077 36.077">
  <path id="Path_1" data-name="Path 1" d="M18.439.5A18.039,18.039,0,1,0,36.477,18.539,17.943,17.943,0,0,0,18.439.5Zm16,16.875H32.4a14.613,14.613,0,0,0-3.2-7.856l1.455-1.455A17.662,17.662,0,0,1,34.441,17.375ZM19.6,2.537a16.748,16.748,0,0,1,9.31,3.782L27.458,8.065a11.241,11.241,0,0,0-7.856-3.2Zm-2.037,0V4.864a14.613,14.613,0,0,0-7.856,3.2L7.965,6.61A16,16,0,0,1,17.566,2.537ZM6.51,8.065,7.965,9.519a15.6,15.6,0,0,0-3.2,7.856H2.728A14.012,14.012,0,0,1,6.51,8.065ZM2.728,19.7H4.764a15.6,15.6,0,0,0,3.2,7.856L6.51,29.013A14.012,14.012,0,0,1,2.728,19.7ZM17.566,34.541a16,16,0,0,1-9.6-4.073l1.455-1.455a11.781,11.781,0,0,0,7.856,3.2v2.328Zm-11.638-16A12.418,12.418,0,0,1,18.439,6.028,12.418,12.418,0,0,1,30.949,18.539,12.418,12.418,0,0,1,18.439,31.049,12.418,12.418,0,0,1,5.928,18.539Zm13.674,16V32.5a14.613,14.613,0,0,0,7.856-3.2l1.455,1.455A16.748,16.748,0,0,1,19.6,34.541Zm11.056-5.528L29.2,27.558A11.781,11.781,0,0,0,32.4,19.7h2.037A17.662,17.662,0,0,1,30.658,29.013Z" transform="translate(-0.4 -0.5)" fill="#fff"/>
  <g id="Group_1" data-name="Group 1" transform="translate(11.929 9.31)">
    <path id="Path_2" data-name="Path 2" d="M14.1,17.083l-.873-3.2H8.282l-.873,3.2H4.5L8.864,3.7h3.491l4.655,13.383Zm-1.746-5.528A42.718,42.718,0,0,1,10.9,6.609c0-.291-.291-.582-.291-.873a29.864,29.864,0,0,1-1.746,5.819Z" transform="translate(-4.5 -3.7)" fill="#fff"/>
  </g>
  <path id="Path_3" data-name="Path 3" d="M9.009,10.355a1.374,1.374,0,0,1-1.455,1.455A1.374,1.374,0,0,1,6.1,10.355,1.374,1.374,0,0,1,7.555,8.9,1.374,1.374,0,0,1,9.009,10.355Z" transform="translate(10.484 15.539)" fill="#fff"/>
</svg>
