<svg xmlns="http://www.w3.org/2000/svg" width="55.948" height="55.947" viewBox="0 0 55.948 55.947">
  <g id="marito" transform="translate(0.002 0.001)">
    <circle id="Ellipse_2" data-name="Ellipse 2" cx="1" cy="1" r="1" transform="translate(46.998 46.999)" fill="#ee4f1a"/>
    <circle id="Ellipse_3" data-name="Ellipse 3" cx="0.82" cy="0.82" r="0.82" transform="translate(50.209 50.212)" fill="#ee4f1a"/>
    <circle id="Ellipse_4" data-name="Ellipse 4" cx="0.82" cy="0.82" r="0.82" transform="translate(7.373 46.934)" fill="#ee4f1a"/>
    <circle id="Ellipse_5" data-name="Ellipse 5" cx="0.82" cy="0.82" r="0.82" transform="translate(4.094 50.212)" fill="#ee4f1a"/>
    <path id="Path_29" data-name="Path 29" d="M31.381,93.881a.82.82,0,0,0-1.159,1.159l6.954,6.954a.82.82,0,0,0,1.159-1.159Z" transform="translate(-26.707 -83.409)" fill="#ee4f1a"/>
    <path id="Path_30" data-name="Path 30" d="M52.594,72.668a.82.82,0,0,0-1.159,1.159l6.954,6.954a.82.82,0,0,0,1.159-1.159Z" transform="translate(-45.602 -64.514)" fill="#ee4f1a"/>
    <path id="Path_31" data-name="Path 31" d="M73.807,51.455a.82.82,0,1,0-1.159,1.159L79.6,59.569a.82.82,0,0,0,1.159-1.159Z" transform="translate(-64.497 -45.619)" fill="#ee4f1a"/>
    <path id="Path_32" data-name="Path 32" d="M95.02,30.242A.82.82,0,0,0,93.861,31.4l6.954,6.954a.82.82,0,1,0,1.159-1.159Z" transform="translate(-83.392 -26.724)" fill="#ee4f1a"/>
    <path id="Path_33" data-name="Path 33" d="M39.562,32.61a.82.82,0,0,0-.464-.232l-3.786-.541-2.125-2.125a.82.82,0,0,0-1.159,1.159l1.739,1.739-1.159,1.159L29.13,30.292l8.907-8.907a7.373,7.373,0,0,0,8.4-1.442l9.272-9.272a.82.82,0,0,0,0-1.159,4.1,4.1,0,0,0-5.8,0l-6.375,6.375-3.477-3.477,6.375-6.375a4.1,4.1,0,0,0,0-5.8.82.82,0,0,0-1.159,0L36,9.512a7.373,7.373,0,0,0-1.442,8.4L27.971,24.5,22.4,18.924A9.045,9.045,0,0,0,20.9,8.154L13.946,1.2a4.1,4.1,0,0,0-5.8,0L1.2,8.154a4.1,4.1,0,0,0,0,5.8L8.151,20.9a9.045,9.045,0,0,0,10.771,1.5l5.572,5.572L20.63,31.837l-3.786.541a.82.82,0,0,0-.464.232L1.437,47.554a4.917,4.917,0,0,0,6.954,6.954L23.335,39.565a.819.819,0,0,0,.232-.464l.541-3.786,3.863-3.863,3.863,3.863.541,3.786a.819.819,0,0,0,.232.464L47.551,54.509a4.917,4.917,0,0,0,6.954-6.954ZM19.625,20.787a.82.82,0,0,0-1.032-.1,7.4,7.4,0,0,1-9.283-.939L2.356,12.79a2.461,2.461,0,0,1,0-3.477L9.31,2.359a2.461,2.461,0,0,1,3.477,0l6.954,6.954a7.4,7.4,0,0,1,.939,9.283.82.82,0,0,0,.1,1.032l6.028,6.028-1.159,1.159ZM7.232,53.35A3.278,3.278,0,0,1,2.6,48.713L16.96,34.349,21.6,38.985Zm14.944-16.1L18.7,33.769l2.028-.29,1.739,1.739Zm1.159-3.477L22.176,32.61,36.148,18.638a.82.82,0,0,0,.126-1,5.733,5.733,0,0,1,.887-6.971l8.594-8.594a2.463,2.463,0,0,1-.48,2.8L38.32,11.83a.82.82,0,0,0,0,1.159l4.636,4.636a.82.82,0,0,0,1.159,0l6.954-6.954a2.463,2.463,0,0,1,2.8-.48l-8.594,8.594a5.733,5.733,0,0,1-6.971.887.82.82,0,0,0-1,.126Zm10.142,1.449,1.739-1.739,2.028.29-3.477,3.477ZM53.347,53.35a3.282,3.282,0,0,1-4.636,0L34.346,38.985l4.636-4.636L53.347,48.713A3.282,3.282,0,0,1,53.347,53.35Z" transform="translate(0 0)" fill="#ee4f1a"/>
  </g>
</svg>
