<?xml version="1.0" encoding="utf-8"?>
<!-- Generator: Adobe Illustrator 24.2.1, SVG Export Plug-In . SVG Version: 6.00 Build 0)  -->
<svg version="1.1" id="Layer_1" xmlns="http://www.w3.org/2000/svg" xmlns:xlink="http://www.w3.org/1999/xlink" x="0px" y="0px"
	 viewBox="0 0 80 80" style="enable-background:new 0 0 80 80;" xml:space="preserve">
<style type="text/css">
	.st0{fill:#FB403F;}
	.st1{fill:#C21C1C;}
	.st2{fill:#F0EEEE;}
	.st3{fill:#FA9E3E;}
	.st4{fill:#3D5868;}
	.st5{fill:#FFB56B;}
	.st6{fill:#19303F;}
</style>
<g>
	<path class="st0" d="M47.1,54.2H30.9c-7,0-12.7,5.7-12.7,12.7v10.1c0,0.6,0.5,1.1,1.1,1.1h39.3c0.6,0,1.1-0.5,1.1-1.1V66.9
		C59.8,59.9,54.1,54.2,47.1,54.2z"/>
	<path class="st1" d="M47.1,54.2h-4.1c7,0,12.7,5.7,12.7,12.7v10.1c0,0.6-0.5,1.1-1.1,1.1h4.1c0.6,0,1.1-0.5,1.1-1.1V66.9
		C59.8,59.9,54.1,54.2,47.1,54.2z"/>
	<g>
		<path class="st2" d="M54,78.1L52.7,67c0,0,0,0,0,0v-12c0-0.6-0.5-1.1-1.1-1.1s-1.1,0.5-1.1,1.1v10.9H27.6V54.9
			c0-0.6-0.5-1.1-1.1-1.1s-1.1,0.5-1.1,1.1v12c0,0,0,0,0,0l-1.2,11.1H54z"/>
	</g>
	<path class="st3" d="M32.9,41.4v12.9c0,3.3,2.7,6,6,6l0,0c3.3,0,6-2.7,6-6V41.4H32.9z"/>
	<path class="st4" d="M63.5,2.7c-0.9-1-2.2-1.1-3.3-0.3C58.4,3.8,53.1,8,44.7,5.3c-6.7-2.2-12-2.7-16.1-1.4C24.7,5,21.9,7.7,20.3,12
		c-4.1,2.8-6,7.3-5.4,13c0.5,4.4,2.3,8.7,3.8,11c0.3,0.5,1,0.7,1.5,0.3c0.3-0.2,0.5-0.6,0.5-0.9h34.5c0,0.4,0.2,0.7,0.5,0.9
		c0.2,0.1,0.4,0.2,0.6,0.2c0.4,0,0.7-0.2,0.9-0.5c1.5-2.5,3.7-8.4,3.8-14.1c3.2-3.8,4.1-8.3,4.3-10.7C65.5,7.5,64.8,4.2,63.5,2.7z"
		/>
	<g>
		<path class="st3" d="M19.7,33.9h7V42h-7c-2.2,0-4-1.8-4-4C15.6,35.7,17.4,33.9,19.7,33.9z"/>
		<path class="st3" d="M56.8,33.9h-7V42h7c2.2,0,4-1.8,4-4C60.9,35.7,59.1,33.9,56.8,33.9z"/>
	</g>
	<path class="st5" d="M55.1,25.6v9c0,8.8-7.1,16.2-16,16.2c-8.9,0-16.1-7.1-16.1-16v-6.3c0-0.1,0.1-0.2,0.2-0.3
		c3.9-1.8,5.2-6.4,5.5-9.6c0.1-0.7,0.1-1.4,0.1-1.9c0-0.3,0.4-0.4,0.6-0.2c0.5,0.5,1.2,1.3,2.1,2.1c4.2,4,13.1,10.4,23.2,6.7
		C54.9,25.2,55.1,25.4,55.1,25.6z"/>
	<g>
		<path class="st6" d="M46.8,34.9c-0.6,0-1.1-0.5-1.1-1.1v-0.3c0-0.6,0.5-1.1,1.1-1.1c0.6,0,1.1,0.5,1.1,1.1v0.3
			C47.9,34.4,47.4,34.9,46.8,34.9z"/>
		<path class="st6" d="M31.3,34.9c-0.6,0-1.1-0.5-1.1-1.1v-0.3c0-0.6,0.5-1.1,1.1-1.1c0.6,0,1.1,0.5,1.1,1.1v0.3
			C32.4,34.4,31.9,34.9,31.3,34.9z"/>
	</g>
</g>
</svg>
