<?xml version="1.0" encoding="utf-8"?>
<!-- Generator: Adobe Illustrator 24.2.1, SVG Export Plug-In . SVG Version: 6.00 Build 0)  -->
<svg version="1.1" id="Layer_1" xmlns="http://www.w3.org/2000/svg" xmlns:xlink="http://www.w3.org/1999/xlink" x="0px" y="0px"
	 viewBox="0 0 80 80" style="enable-background:new 0 0 80 80;" xml:space="preserve">
<style type="text/css">
	.st0{fill:#EE4F1A;}
</style>
<g id="marito" transform="translate(0.002 0.001)">
	<circle id="Ellipse_2" class="st0" cx="63.9" cy="63.9" r="1.2"/>
	<circle id="Ellipse_3" class="st0" cx="67.5" cy="67.5" r="1"/>
	<circle id="Ellipse_4" class="st0" cx="16.4" cy="63.6" r="1"/>
	<circle id="Ellipse_5" class="st0" cx="12.5" cy="67.5" r="1"/>
	<path id="Path_29" class="st0" d="M12.2,19.1c-0.4-0.4-1-0.3-1.4,0c-0.4,0.4-0.4,1,0,1.3l8.3,8.3c0.4,0.4,1,0.3,1.4,0
		c0.4-0.4,0.4-1,0-1.3L12.2,19.1z"/>
	<path id="Path_30" class="st0" d="M15,16.3c-0.4-0.4-1-0.3-1.4,0c-0.4,0.4-0.4,1,0,1.3l8.3,8.3c0.4,0.4,1,0.3,1.4,0
		c0.4-0.4,0.4-1,0-1.3L15,16.3z"/>
	<path id="Path_31" class="st0" d="M17.7,13.6c-0.4-0.4-1-0.4-1.4,0c-0.4,0.4-0.4,1,0,1.4c0,0,0,0,0,0l8.3,8.3c0.4,0.4,1,0.3,1.4,0
		c0.4-0.4,0.4-1,0-1.3L17.7,13.6z"/>
	<path id="Path_32" class="st0" d="M20.5,10.8c-0.4-0.4-1-0.3-1.4,0.1c-0.3,0.4-0.3,0.9,0,1.3l8.3,8.3c0.4,0.4,1,0.4,1.4,0
		c0.4-0.4,0.4-1,0-1.4c0,0,0,0,0,0L20.5,10.8z"/>
	<path id="Path_33" class="st0" d="M53.8,45.5c-0.1-0.1-0.3-0.2-0.6-0.3l-4.5-0.6l-2.5-2.5c-0.4-0.4-1-0.3-1.4,0
		c-0.4,0.4-0.4,1,0,1.3l2.1,2.1l-1.4,1.4l-4.2-4.1L52,32.1c3.4,1.6,7.4,0.9,10-1.7l11.1-11.1c0.4-0.4,0.4-1,0-1.4
		c-1.9-1.9-5-1.9-6.9,0c0,0,0,0,0,0l-7.6,7.6l-4.1-4.1l7.6-7.6c1.9-1.9,1.9-5,0-6.9c0,0,0,0,0,0c-0.4-0.4-1-0.4-1.4,0L49.6,18
		c-2.6,2.6-3.3,6.7-1.7,10L40,35.9l-6.6-6.7c2.3-4.2,1.6-9.4-1.8-12.9l-8.3-8.3c-1.9-1.9-5-1.9-6.9,0c0,0,0,0,0,0l-8.3,8.3
		c-1.9,1.9-1.9,5,0,6.9c0,0,0,0,0,0l8.3,8.3c3.4,3.4,8.6,4.1,12.9,1.8l6.6,6.6l-4.6,4.6l-4.5,0.6c-0.2,0-0.4,0.1-0.6,0.3L8.3,63.4
		c-2.3,2.3-2.3,6,0,8.3c2.3,2.3,6,2.3,8.3,0l0,0l17.8-17.8c0.1-0.1,0.2-0.3,0.3-0.6l0.6-4.5l4.6-4.6l4.6,4.6l0.6,4.5
		c0,0.2,0.1,0.4,0.3,0.6l17.8,17.8c2.3,2.3,6,2.3,8.3,0c2.3-2.3,2.3-6,0-8.3L53.8,45.5z M30,31.4c-0.3-0.3-0.8-0.4-1.2-0.1
		c-3.5,2.3-8.1,1.8-11.1-1.1l-8.3-8.3c-1.1-1.1-1.1-3,0-4.1l8.3-8.3c1.1-1.1,3-1.1,4.1,0l8.3,8.3c2.9,3,3.4,7.6,1.1,11.1
		c-0.3,0.4-0.2,0.9,0.1,1.2l7.2,7.2l-1.4,1.4L30,31.4z M15.2,70.3c-1.6,1.5-4,1.4-5.5-0.1c-1.4-1.5-1.4-3.9,0-5.4l17.1-17.1l5.5,5.5
		L15.2,70.3z M33.1,51.1l-4.1-4.2l2.4-0.3l2.1,2.1L33.1,51.1z M34.5,46.9l-1.4-1.4l16.7-16.7c0.3-0.3,0.4-0.8,0.2-1.2
		c-1.6-2.7-1.2-6.1,1.1-8.3L61.2,9.1c0.5,1.1,0.3,2.5-0.6,3.3l-8.3,8.3c-0.4,0.4-0.4,1,0,1.4l5.5,5.5c0.4,0.4,1,0.4,1.4,0l8.3-8.3
		c0.9-0.9,2.2-1.1,3.3-0.6L60.6,29c-2.2,2.2-5.6,2.6-8.3,1.1c-0.4-0.2-0.9-0.2-1.2,0.2L34.5,46.9z M46.6,48.6l2.1-2.1l2.4,0.3
		l-4.1,4.1L46.6,48.6z M70.3,70.3c-1.5,1.5-4,1.5-5.5,0L47.6,53.1l5.5-5.5l17.1,17.1C71.8,66.3,71.8,68.8,70.3,70.3z"/>
</g>
</svg>
