<?xml version="1.0" encoding="utf-8"?>
<!-- Generator: Adobe Illustrator 24.2.1, SVG Export Plug-In . SVG Version: 6.00 Build 0)  -->
<svg version="1.1" id="Layer_1" xmlns="http://www.w3.org/2000/svg" xmlns:xlink="http://www.w3.org/1999/xlink" x="0px" y="0px"
	 viewBox="0 0 80 80" style="enable-background:new 0 0 80 80;" xml:space="preserve">
<style type="text/css">
	.st0{fill:#EE4F1A;}
</style>
<g id="Nico" transform="translate(0 -0.001)">
	<path id="Path_23" class="st0" d="M62.3,43V29.4c0-5.5-4.4-9.9-9.9-9.9c-1.1,0-2.2,0.2-3.3,0.6l-6.6,2.3c-1.6,0.6-3.4,0.6-5,0
		L30.9,20c-5.2-1.8-10.8,0.9-12.7,6.1c-0.4,1.1-0.6,2.2-0.6,3.3V43c-5.2,1.2-14.9,4-14.9,8.8c0,8.1,28.5,8.7,37.2,8.7
		s37.2-0.6,37.2-8.7C77.2,47.1,67.5,44.2,62.3,43z M20.2,44.1c1.6,0.4,3.2,0.7,4.8,0.9c5,0.5,10,0.8,15.1,0.7c5,0,10.1-0.2,15.1-0.7
		c1.6-0.2,3.2-0.4,4.8-0.9v4.8c-1.7,0.8-9,1.7-19.8,1.7s-18.2-1-19.8-1.7V44.1z M20.2,29.4c0-4.1,3.3-7.4,7.4-7.4
		c0.8,0,1.7,0.1,2.5,0.4l6.6,2.3c2.1,0.7,4.5,0.7,6.6,0l6.6-2.3c3.9-1.4,8.1,0.7,9.5,4.5c0.3,0.8,0.4,1.6,0.4,2.5v12.1
		c-1.7,0.8-9,1.7-19.8,1.7s-18.2-1-19.8-1.7L20.2,29.4z M40,58.1c-24,0-34.7-3.6-34.7-6.2c0-1.4,3.3-4.1,12.4-6.3v3.8
		c0,1.3,1.2,2.3,7.3,3c5,0.5,10,0.8,15.1,0.7c5,0,10.1-0.2,15.1-0.7c6.1-0.7,7.3-1.6,7.3-3v-3.8c9.1,2.1,12.4,4.9,12.4,6.3
		C74.7,54.4,64,58.1,40,58.1z"/>
	<path id="Path_24" class="st0" d="M47.1,29.2c0.5-0.5,0.5-1.3,0-1.8c-0.5-0.5-1.2-0.5-1.7,0c-1.5,1.3-3.4,2.1-5.3,2.1
		c-2-0.1-3.9-0.8-5.3-2.1c-0.5-0.5-1.3-0.5-1.8,0c-0.5,0.5-0.5,1.3,0,1.8C36.9,33,43.1,33,47.1,29.2L47.1,29.2z"/>
	<path id="Path_25" class="st0" d="M23.9,30.8c-0.7,0-1.2,0.6-1.2,1.2v5c0,0.7,0.6,1.2,1.2,1.2c0.7,0,1.2-0.6,1.2-1.2v-5
		C25.1,31.3,24.6,30.8,23.9,30.8C23.9,30.8,23.9,30.8,23.9,30.8z"/>
</g>
</svg>
