<?xml version="1.0" encoding="utf-8"?>
<!-- Generator: Adobe Illustrator 24.2.1, SVG Export Plug-In . SVG Version: 6.00 Build 0)  -->
<svg version="1.1" id="Layer_1" xmlns="http://www.w3.org/2000/svg" xmlns:xlink="http://www.w3.org/1999/xlink" x="0px" y="0px"
	 viewBox="0 0 80 80" style="enable-background:new 0 0 80 80;" xml:space="preserve">
<style type="text/css">
	.st0{fill:#BF612C;}
	.st1{fill:#F0EEEE;}
	.st2{fill:#D9D4D4;}
	.st3{fill:#FA8500;}
	.st4{fill:#CE6A06;}
	.st5{fill:#FFB700;}
	.st6{fill:#FA9E3E;}
	.st7{fill:#FFB56B;}
	.st8{fill:#EF9245;}
	.st9{fill:none;stroke:#000000;stroke-width:15;stroke-linecap:round;stroke-linejoin:round;stroke-miterlimit:10;}
	.st10{fill:#5880A2;}
	.st11{fill:#484655;}
	.st12{fill:#35343F;}
	.st13{fill:#3D5868;}
	.st14{fill:#2A434F;}
	.st15{fill:#595866;}
	.st16{fill:#19303F;}
</style>
<g>
	<rect x="19.2" y="27.5" class="st0" width="41.6" height="11.5"/>
	<path class="st1" d="M47.7,54.6H32.3c-6.7,0-12.1,5.4-12.1,12.1v9.6c0,0.6,0.5,1.1,1.1,1.1h37.6c0.6,0,1.1-0.5,1.1-1.1v-9.6
		C59.9,60.1,54.4,54.6,47.7,54.6z"/>
	<path class="st2" d="M47.7,54.6h-4.1c6.7,0,12.1,5.4,12.1,12.1v9.6c0,0.6-0.5,1.1-1.1,1.1h4.1c0.6,0,1.1-0.5,1.1-1.1v-9.6
		C59.9,60.1,54.4,54.6,47.7,54.6z"/>
	<path class="st3" d="M50.1,77.5h3.6V56.2c-1.1-0.6-2.3-1.1-3.6-1.3V77.5z"/>
	<path class="st4" d="M50.1,56.5c1.4,0.9,2.6,2.1,3.6,3.4v-3.7c-0.1-0.1-0.3-0.1-0.4-0.2c0,0,0,0-0.1,0c-0.1-0.1-0.3-0.1-0.4-0.2
		c0,0,0,0,0,0c-0.4-0.2-0.8-0.4-1.3-0.5c0,0,0,0,0,0c-0.1,0-0.3-0.1-0.4-0.1c0,0-0.1,0-0.1,0c-0.1,0-0.2-0.1-0.4-0.1
		c0,0-0.1,0-0.1,0c-0.1,0-0.3-0.1-0.4-0.1h0L50.1,56.5L50.1,56.5z"/>
	<path class="st5" d="M48,69.6v2.4c0,0.3,0.3,0.6,0.6,0.6h6.6c0.3,0,0.6-0.3,0.6-0.6v-2.4c0-0.3-0.3-0.6-0.6-0.6h-6.6
		C48.3,69.1,48,69.3,48,69.6z"/>
	<path class="st3" d="M26.3,77.5h3.6V54.9c-1.3,0.3-2.5,0.7-3.6,1.3L26.3,77.5L26.3,77.5z"/>
	<path class="st5" d="M24.3,69.6v2.4c0,0.3,0.3,0.6,0.6,0.6h6.6c0.3,0,0.6-0.3,0.6-0.6v-2.4c0-0.3-0.3-0.6-0.6-0.6h-6.6
		C24.5,69.1,24.3,69.3,24.3,69.6z"/>
	<path class="st2" d="M55.7,64l-6.2-10.6c-0.2-0.3-0.6-0.5-0.9-0.5h-17c-0.4,0-0.7,0.2-0.9,0.5L24.3,64c-0.2,0.4-0.2,0.8,0.1,1.2
		c0.3,0.4,0.7,0.5,1.1,0.4l7.5-1.5l-0.2,0.8c-0.1,0.3,0,0.7,0.2,1l6.2,7.4c0.2,0.3,0.5,0.4,0.8,0.4c0.3,0,0.6-0.1,0.8-0.4l6.2-7.4
		c0.2-0.3,0.3-0.7,0.2-1L47,64.1l7.5,1.5c0.4,0.1,0.9-0.1,1.1-0.4C55.9,64.8,55.9,64.3,55.7,64z"/>
	<g>
		<path class="st6" d="M46.2,41.7v14l-5.5,15.1c-0.2,0.6-1.1,0.6-1.3,0l-5.5-15.1v-14L46.2,41.7L46.2,41.7z"/>
		<path class="st6" d="M20.9,34.9h7.2v8.3h-7.2c-2.3,0-4.1-1.9-4.1-4.1S18.7,34.9,20.9,34.9z"/>
		<path class="st6" d="M59.1,34.9h-7.2v8.3h7.2c2.3,0,4.1-1.9,4.1-4.1S61.3,34.9,59.1,34.9z"/>
	</g>
	<path class="st7" d="M40,52.7L40,52.7c-9.1,0-16.4-7.3-16.4-16.4V19.7h32.8v16.6C56.4,45.4,49.1,52.7,40,52.7z"/>
	<path class="st8" d="M53,19.7V38c0,7.8-6.1,14.2-13.9,14.7c0.3,0,0.6,0,0.9,0l0,0c9.1,0,16.4-7.3,16.4-16.4V19.7H53z"/>
	<g>
		<line class="st9" x1="48" y1="35.2" x2="48" y2="35.5"/>
		<line class="st9" x1="32" y1="35.2" x2="32" y2="35.5"/>
	</g>
	<g>
		<path class="st10" d="M49.9,40.1h-2.6c-2.2,0-3.9-1.8-3.9-3.9v-2.9c3.4-1.4,6.8-1.4,10.3,0v3C53.7,38.4,52,40.1,49.9,40.1z"/>
		<path class="st10" d="M32.8,40.1h-2.6c-2.2,0-3.9-1.8-3.9-3.9v-2.9c3.4-1.4,6.8-1.4,10.3,0v3C36.6,38.4,34.9,40.1,32.8,40.1z"/>
	</g>
	<path class="st11" d="M60.7,25.6L57,8.3c-0.7-3.3-3.7-5.7-7.1-5.7h-0.9c-1.7,0-3.4,0.6-4.7,1.7l-0.7,0.6c-2.2,1.8-5.3,1.8-7.4,0
		l-0.7-0.6c-1.3-1.1-3-1.7-4.7-1.7c-3.4,0-6.4,2.4-7.1,5.7l-3.7,17.3c-0.1,0.3,0,0.7,0.2,0.9c0.2,0.3,0.5,0.4,0.9,0.4h38.3
		c0.3,0,0.6-0.1,0.9-0.4C60.7,26.2,60.8,25.9,60.7,25.6z"/>
	<g>
		<path class="st12" d="M60.7,25.6L57,8.3c-0.7-3.3-3.7-5.7-7.1-5.7h-0.9c-0.6,0-1.2,0.1-1.7,0.2c2.6,0.6,4.8,2.8,5.4,5.5l3.7,17.3
			c0.1,0.3,0,0.7-0.2,0.9c-0.2,0.3-0.5,0.4-0.9,0.4h4.3c0.3,0,0.6-0.1,0.9-0.4C60.7,26.2,60.8,25.9,60.7,25.6z"/>
		<path class="st12" d="M54.1,32.3c-3.8-1.5-7.6-1.5-11.1,0c-0.4,0.2-0.7,0.6-0.7,1v0.5h-4.6v-0.5c0-0.5-0.3-0.9-0.7-1
			c-3.8-1.5-7.6-1.5-11.1,0c-0.4,0.2-0.7,0.6-0.7,1v2.9c0,2.8,2.2,5,5,5h2.6c2.7,0,4.9-2.2,4.9-4.9V36h4.6v0.2c0,2.8,2.2,5,5,5h2.6
			c2.7,0,4.9-2.2,4.9-4.9v-3C54.8,32.9,54.5,32.5,54.1,32.3z M35.5,36.3c0,1.5-1.2,2.7-2.7,2.7h-2.6c-1.6,0-2.8-1.3-2.8-2.8v-2.1
			c2.6-0.9,5.3-0.9,8.1,0L35.5,36.3L35.5,36.3z M52.6,36.3c0,1.5-1.2,2.7-2.7,2.7h-2.6c-1.6,0-2.8-1.3-2.8-2.8v-2.1
			c2.6-0.9,5.3-0.9,8.1,0L52.6,36.3L52.6,36.3z"/>
	</g>
	<path class="st13" d="M60.7,25.8c0-0.1,0-0.2,0-0.2L59,17.4h-37l-1.7,8.1c0,0.1,0,0.2,0,0.2H60.7z"/>
	<path class="st14" d="M54.7,17.4l1.7,8.1c0,0.1,0,0.2,0,0.2h4.3c0,0,0,0,0,0c0,0,0-0.1,0-0.1c0,0,0-0.1,0-0.1L59,17.4
		C59,17.4,54.7,17.4,54.7,17.4z"/>
	<path class="st15" d="M65.1,23.4H14.9c-0.6,0-1.1,0.5-1.1,1.1V25c0,3.2,2.6,5.9,5.9,5.9h40.6c3.2,0,5.9-2.6,5.9-5.9v-0.5
		C66.2,23.9,65.7,23.4,65.1,23.4z"/>
	<path class="st12" d="M65.1,23.4h-5.3c0.6,0,1.1,0.5,1.1,1.1V25c0,3.2-2.6,5.9-5.9,5.9h5.3c3.2,0,5.9-2.6,5.9-5.9v-0.5
		C66.2,23.9,65.7,23.4,65.1,23.4z"/>
	<path class="st16" d="M43.4,45.2c-0.1,0-0.3,0-0.4-0.1c-0.5-0.2-1.5-0.4-3-0.4c-1.4,0-2.5,0.2-3,0.4c-0.6,0.2-1.2,0-1.4-0.6
		c-0.2-0.6,0-1.2,0.6-1.4c0.9-0.4,2.3-0.6,3.8-0.6c1.5,0,2.9,0.2,3.8,0.6c0.6,0.2,0.8,0.9,0.6,1.4C44.2,44.9,43.8,45.2,43.4,45.2z"
		/>
</g>
</svg>
