<svg xmlns="http://www.w3.org/2000/svg" width="79.747" height="44.007" viewBox="0 0 79.747 44.007">
  <g id="Nico" transform="translate(0 -0.001)">
    <path id="Path_23" data-name="Path 23" d="M63.8,25.236v-14.6A10.633,10.633,0,0,0,49.624.608L42.532,3.12a8.058,8.058,0,0,1-5.31,0L30.122.608A10.633,10.633,0,0,0,15.949,10.633v14.6C10.427,26.5,0,29.568,0,34.7c0,8.633,30.519,9.3,39.874,9.3s39.874-.671,39.874-9.3C79.747,29.568,69.32,26.5,63.8,25.236ZM18.607,26.354a33.31,33.31,0,0,0,5.133.914,145.494,145.494,0,0,0,16.133.79,145.494,145.494,0,0,0,16.133-.79,33.31,33.31,0,0,0,5.133-.914v5.184c-1.777.817-9.622,1.837-21.266,1.837s-19.489-1.02-21.266-1.831Zm0-15.721A7.975,7.975,0,0,1,29.241,3.115l7.1,2.513a10.726,10.726,0,0,0,7.077,0l7.087-2.513A7.975,7.975,0,0,1,61.14,10.633V23.568c-1.777.812-9.622,1.832-21.266,1.832s-19.489-1.02-21.266-1.832ZM39.874,41.349c-25.668,0-37.215-3.887-37.215-6.646,0-1.5,3.588-4.446,13.291-6.736v4.078c0,1.444,1.275,2.43,7.791,3.2a145.346,145.346,0,0,0,16.133.79,145.346,145.346,0,0,0,16.133-.79c6.517-.768,7.791-1.754,7.791-3.2V27.968c9.7,2.29,13.291,5.24,13.291,6.736C77.089,37.463,65.543,41.349,39.874,41.349Zm0,0" fill="#ee4f1a"/>
    <path id="Path_24" data-name="Path 24" d="M220.406,54.485a1.329,1.329,0,0,0-1.879-1.879,8.781,8.781,0,0,1-5.706,2.269,8.925,8.925,0,0,1-5.715-2.272,1.329,1.329,0,0,0-1.877,1.882,10.972,10.972,0,0,0,15.177,0Zm0,0" transform="translate(-172.947 -44.095)" fill="#ee4f1a"/>
    <path id="Path_25" data-name="Path 25" d="M137.864,77.734a1.329,1.329,0,0,0-1.329,1.329V84.38a1.329,1.329,0,1,0,2.658,0V79.064A1.329,1.329,0,0,0,137.864,77.734Zm0,0" transform="translate(-115.269 -65.626)" fill="#ee4f1a"/>
  </g>
</svg>
