<?xml version="1.0" encoding="utf-8"?>
<!-- Generator: Adobe Illustrator 24.2.1, SVG Export Plug-In . SVG Version: 6.00 Build 0)  -->
<svg version="1.1" id="Layer_1" xmlns="http://www.w3.org/2000/svg" xmlns:xlink="http://www.w3.org/1999/xlink" x="0px" y="0px"
	 viewBox="0 0 45 45" style="enable-background:new 0 0 45 45;" xml:space="preserve">
<style type="text/css">
	.st0{fill:#EE4F1A;}
</style>
<g>
	<path class="st0" d="M43.8,8.8c-0.3-0.2-0.7-0.2-1,0c-0.4,0.3-1,0.5-1.6,0.7c1.7-1.9,1.7-3.1,1.7-3.4c0-0.3-0.2-0.6-0.5-0.7
		c-0.3-0.1-0.6-0.1-0.8,0.1c-1.9,1.4-3.8,1.7-4.9,1.7c-1.7-1.6-3.9-2.5-6.3-2.5c-5.1,0-9.2,4.2-9.2,9.3c0,0.4,0,0.9,0.1,1.3
		c-8.8-0.1-15.9-8.5-16-8.6C5.1,6.4,4.9,6.3,4.6,6.3C4.3,6.3,4.1,6.5,4,6.7C1.4,11.1,3.1,15,4.7,17.2C4.4,17,4.2,16.9,4,16.8
		c-0.2-0.2-0.6-0.2-0.9-0.1c-0.3,0.1-0.5,0.4-0.5,0.7c-0.1,4.2,1.9,6.6,3.8,7.9c-0.3,0-0.5,0.1-0.7,0.3c-0.2,0.2-0.3,0.5-0.2,0.8
		c1.3,4.3,4.5,5.7,6.6,6.2c-4.2,3.3-10.4,2.2-10.5,2.2c-0.4-0.1-0.7,0.1-0.9,0.5c-0.2,0.3,0,0.8,0.3,1c4.4,3.4,9.7,4.1,13.6,4.1
		c2.9,0,5-0.4,5.2-0.5c19.4-4.6,20-22.4,19.9-25.3c3.6-3.4,4.2-4.7,4.3-5C44.2,9.3,44.1,9,43.8,8.8z M38.4,13.7
		c-0.2,0.2-0.3,0.4-0.3,0.7c0.1,0.8,1,19.3-18.6,24c-0.1,0-7.9,1.7-14.7-1.7c2.9-0.1,7-0.8,9.8-4c0.2-0.2,0.3-0.6,0.1-0.9
		c-0.1-0.3-0.4-0.5-0.7-0.5c0,0,0,0,0,0c0,0-4.3,0-6.3-4.1c0.8,0,1.8,0,2.5-0.4c0.3-0.1,0.5-0.5,0.5-0.8c0-0.4-0.3-0.6-0.6-0.7
		c-0.2,0-5-1.1-5.7-6.3c0.7,0.3,1.7,0.6,2.6,0.4c0.3,0,0.6-0.3,0.7-0.6s0-0.6-0.2-0.8c-0.2-0.2-4.7-4.2-2.6-9.3
		c2.3,2.4,9.2,8.7,17.5,8.3c0.2,0,0.5-0.1,0.6-0.3c0.1-0.2,0.2-0.4,0.1-0.7c-0.2-0.6-0.2-1.3-0.2-1.9c0-4.2,3.4-7.7,7.6-7.7
		c2,0,4,0.8,5.4,2.3c0.2,0.2,0.4,0.2,0.6,0.2c0.9,0,2.3-0.1,3.9-0.7c-0.5,0.6-1.1,1.3-2.2,2.1c-0.3,0.2-0.4,0.6-0.3,0.9
		c0.1,0.3,0.5,0.5,0.8,0.5c0.2,0,1.2-0.1,2.3-0.3C40.4,11.9,39.6,12.7,38.4,13.7z"/>
</g>
</svg>
