<svg xmlns="http://www.w3.org/2000/svg" width="45" height="37.067" viewBox="0 0 45 37.067">
  <g id="Twitter_Icon" data-name="Twitter Icon" transform="translate(1.5 1.5)">
    <path id="Path_2" data-name="Path 2" d="M51.3,36.067c15.867,0,24.5-13.067,24.5-24.5V10.4A18.966,18.966,0,0,0,80,5.967a19.37,19.37,0,0,1-4.9,1.4A9.078,9.078,0,0,0,78.833,2.7a21.4,21.4,0,0,1-5.367,2.1,8.333,8.333,0,0,0-6.3-2.8,8.767,8.767,0,0,0-8.633,8.633,4.549,4.549,0,0,0,.233,1.867A24.124,24.124,0,0,1,41.033,3.4a8.936,8.936,0,0,0-1.167,4.433A9.271,9.271,0,0,0,43.6,15.067,7.866,7.866,0,0,1,39.633,13.9h0a8.528,8.528,0,0,0,7,8.4,7.193,7.193,0,0,1-2.333.233,3.971,3.971,0,0,1-1.633-.233,8.84,8.84,0,0,0,8.167,6.067A17.617,17.617,0,0,1,40.1,32.1a6.46,6.46,0,0,1-2.1-.233,22.024,22.024,0,0,0,13.3,4.2" transform="translate(-38 -2)" fill="none" stroke="#ee4f1a" stroke-linejoin="round" stroke-width="3" fill-rule="evenodd"/>
  </g>
</svg>
