<svg xmlns="http://www.w3.org/2000/svg" width="59.21" height="74.013" viewBox="0 0 59.21 74.013">
  <g id="Valen" transform="translate(-48)">
    <g id="Group_17" data-name="Group 17" transform="translate(47.999)">
      <g id="Group_16" data-name="Group 16">
        <path id="Path_26" data-name="Path 26" d="M66.353,21.543a3.721,3.721,0,0,1-1.084-2.616V1.234A1.234,1.234,0,0,0,64.036,0h-7.4A1.234,1.234,0,0,0,55.4,1.234V18.926a3.721,3.721,0,0,1-1.084,2.616A21.432,21.432,0,0,0,48,36.8V70.312a3.7,3.7,0,0,0,3.7,3.7H68.97a3.7,3.7,0,0,0,3.7-3.7V36.8A21.431,21.431,0,0,0,66.353,21.543ZM57.868,2.467H62.8V4.934H57.868Zm0,4.934H62.8v4.934H57.868ZM70.2,70.312a1.234,1.234,0,0,1-1.234,1.234H51.7a1.234,1.234,0,0,1-1.234-1.234v-3.7H70.2Zm0-6.168H50.467V39.473H70.2Zm0-27.138H50.467V36.8a18.982,18.982,0,0,1,5.594-13.509,6.128,6.128,0,0,0,1.807-4.361V14.8H62.8v4.124a6.128,6.128,0,0,0,1.807,4.361A18.982,18.982,0,0,1,70.2,36.8Z" transform="translate(-47.999)" fill="#ee4f1a"/>
      </g>
    </g>
    <g id="Group_19" data-name="Group 19" transform="translate(75.138 14.803)">
      <g id="Group_18" data-name="Group 18" transform="translate(0)">
        <path id="Path_27" data-name="Path 27" d="M254.839,96H225.234A1.234,1.234,0,0,0,224,97.234v4.934a1.234,1.234,0,0,0,1.234,1.234H238.8v2.737l-1.6.4a1.85,1.85,0,0,0,0,3.59l2.685.672-2.688.672a1.85,1.85,0,0,0,0,3.59l2.688.672-2.688.672a1.85,1.85,0,0,0,0,3.59l2.688.672-2.688.672a1.85,1.85,0,0,0,0,3.59l2.688.672-.147.037a1.234,1.234,0,0,0-.935,1.2v2.467a1.234,1.234,0,1,0,2.467,0v-1.5l1.6-.4a1.85,1.85,0,0,0,0-3.59l-2.685-.672,2.688-.672a1.85,1.85,0,0,0,0-3.59l-2.688-.672,2.688-.672a1.85,1.85,0,0,0,0-3.59l-2.688-.672,2.688-.672a1.85,1.85,0,0,0,0-3.59l-2.688-.672.147-.037a1.234,1.234,0,0,0,.935-1.2v-3.7h13.569a1.234,1.234,0,0,0,1.234-1.234V97.234A1.234,1.234,0,0,0,254.839,96Zm-1.234,4.934H226.467V98.467h27.138Z" transform="translate(-224 -96)" fill="#ee4f1a"/>
      </g>
    </g>
  </g>
</svg>
