<?xml version="1.0" encoding="utf-8"?>
<!-- Generator: Adobe Illustrator 24.2.1, SVG Export Plug-In . SVG Version: 6.00 Build 0)  -->
<svg version="1.1" id="Layer_1" xmlns="http://www.w3.org/2000/svg" xmlns:xlink="http://www.w3.org/1999/xlink" x="0px" y="0px"
	 viewBox="0 0 80 80" style="enable-background:new 0 0 80 80;" xml:space="preserve">
<style type="text/css">
	.st0{fill:#EE4F1A;}
</style>
<g id="Valen" transform="translate(-48)">
	<g id="Group_17" transform="translate(47.999)">
		<g id="Group_16">
			<path id="Path_26" class="st0" d="M29.7,25.8c-0.6-0.6-1-1.5-1-2.4V7.2c0-0.6-0.5-1.1-1.1-1.1h-6.8c-0.6,0-1.1,0.5-1.1,1.1
				c0,0,0,0,0,0v16.2c0,0.9-0.4,1.8-1,2.4c-3.7,3.7-5.8,8.7-5.8,14v30.7c0,1.9,1.5,3.4,3.4,3.4h15.8c1.9,0,3.4-1.5,3.4-3.4V39.8
				C35.5,34.6,33.4,29.5,29.7,25.8z M21.9,8.3h4.5v2.3h-4.5V8.3z M21.9,12.9h4.5v4.5h-4.5V12.9z M33.2,70.5c0,0.6-0.5,1.1-1.1,1.1
				l0,0H16.3c-0.6,0-1.1-0.5-1.1-1.1l0,0v-3.4h18.1V70.5z M33.2,64.9H15.1V42.3h18.1V64.9z M33.2,40H15.1v-0.2
				c0-4.6,1.8-9.1,5.1-12.4c1.1-1.1,1.7-2.5,1.7-4v-3.8h4.5v3.8c0,1.5,0.6,2.9,1.7,4c3.3,3.3,5.1,7.7,5.1,12.4V40z"/>
		</g>
	</g>
	<g id="Group_19" transform="translate(75.138 14.803)">
		<g id="Group_18" transform="translate(0)">
			<path id="Path_27" class="st0" d="M38.9,4.8H11.7c-0.6,0-1.1,0.5-1.1,1.1v4.5c0,0.6,0.5,1.1,1.1,1.1h12.4v2.5l-1.5,0.4
				c-0.9,0.2-1.5,1.1-1.2,2.1c0.2,0.6,0.6,1.1,1.2,1.2l2.5,0.6L22.7,19c-0.9,0.2-1.5,1.1-1.2,2.1c0.2,0.6,0.6,1.1,1.2,1.2l2.5,0.6
				l-2.5,0.6c-0.9,0.2-1.5,1.1-1.2,2.1c0.2,0.6,0.6,1.1,1.2,1.2l2.5,0.6l-2.5,0.6c-0.9,0.2-1.5,1.1-1.2,2.1c0.2,0.6,0.6,1.1,1.2,1.2
				l2.5,0.6L25,32c-0.5,0.1-0.9,0.6-0.9,1.1v2.3c0,0.6,0.5,1.1,1.1,1.2s1.1-0.5,1.2-1.1c0,0,0,0,0-0.1V34l1.5-0.4
				c0.9-0.2,1.5-1.1,1.2-2.1c-0.2-0.6-0.6-1.1-1.2-1.2l-2.5-0.6l2.5-0.6c0.9-0.2,1.5-1.1,1.2-2.1c-0.2-0.6-0.6-1.1-1.2-1.2l-2.5-0.6
				l2.5-0.6c0.9-0.2,1.5-1.1,1.2-2.1c-0.2-0.6-0.6-1.1-1.2-1.2l-2.5-0.6l2.5-0.6c0.9-0.2,1.5-1.1,1.2-2.1c-0.2-0.6-0.6-1.1-1.2-1.2
				l-2.5-0.6l0.1,0c0.5-0.1,0.9-0.6,0.9-1.1v-3.4h12.4c0.6,0,1.1-0.5,1.1-1.1v0V6C40,5.3,39.5,4.8,38.9,4.8z M37.7,9.4H12.9V7.1
				h24.9L37.7,9.4z"/>
		</g>
	</g>
</g>
</svg>
