<?xml version="1.0" encoding="utf-8"?>
<!-- Generator: Adobe Illustrator 24.2.1, SVG Export Plug-In . SVG Version: 6.00 Build 0)  -->
<svg version="1.1" id="Layer_1" xmlns="http://www.w3.org/2000/svg" xmlns:xlink="http://www.w3.org/1999/xlink" x="0px" y="0px"
	 viewBox="0 0 80 80" style="enable-background:new 0 0 80 80;" xml:space="preserve">
<style type="text/css">
	.st0{fill:#2E93CC;}
	.st1{fill:#49B6F2;}
	.st2{fill:#FA9E3E;}
	.st3{fill:#696970;}
	.st4{fill:#FFB56B;}
	.st5{fill:#EF9245;}
	.st6{fill:#19303F;}
	.st7{fill:#484655;}
	.st8{fill:#35343F;}
</style>
<g>
	<path class="st0" d="M47.2,55.2l-3.2,0c5.9,0,10.7,4.8,10.7,10.7l0,9.3l3.2,0l0-9.3C57.9,60,53.1,55.2,47.2,55.2z"/>
	<path class="st1" d="M59,65.9c0-6.5-5.3-11.7-11.8-11.7c0,0,0,0,0,0l-15,0c-3.1,0-6.1,1.2-8.3,3.5c-2.2,2.2-3.4,5.2-3.4,8.3l0,9.3
		c0,0.6,0.5,1.1,1.1,1.1c0,0,0,0,0,0l36.4-0.1c0.3,0,0.6-0.1,0.8-0.3c0.2-0.2,0.3-0.5,0.3-0.8L59,65.9z"/>
	<path class="st2" d="M45.6,55.5l0-13.8l-11.9,0l0,13.8c0,3.3,2.7,6,6,6l0,0C43,61.5,45.7,58.8,45.6,55.5z"/>
	
		<rect x="19.2" y="18.9" transform="matrix(1 -1.699998e-03 1.699998e-03 1 -4.998292e-02 6.742023e-02)" class="st3" width="40.8" height="21"/>
	<g>
		<path class="st2" d="M21.2,35.6l7,0l0,8l-7,0c-2.2,0-4-1.8-4-4C17.2,37.4,19,35.6,21.2,35.6z"/>
		<path class="st2" d="M58.1,35.5l-7,0l0,8l7,0c2.2,0,4-1.8,4-4C62.1,37.3,60.3,35.5,58.1,35.5z"/>
	</g>
	<path class="st4" d="M39.7,52.4L39.7,52.4c-8.8,0-15.9-7.1-15.9-15.9l0-16.1l31.8-0.1l0,16.1C55.6,45.2,48.5,52.4,39.7,52.4z"/>
	<path class="st5" d="M52.2,20.4l0,17.7c0,7.6-5.9,13.8-13.4,14.2c0.3,0,0.6,0,0.9,0l0,0c8.8,0,15.9-7.1,15.9-15.9l0-16.1L52.2,20.4
		z"/>
	<g>
		<path class="st6" d="M47.3,35.9c-0.6,0-1.1-0.5-1.1-1.1l0-0.3c0-0.6,0.5-1.1,1.1-1.1c0,0,0,0,0,0c0.6,0,1.1,0.5,1.1,1.1l0,0.3
			C48.4,35.5,47.9,35.9,47.3,35.9C47.3,35.9,47.3,35.9,47.3,35.9z"/>
		<path class="st6" d="M31.9,36c-0.6,0-1.1-0.5-1.1-1.1l0-0.3c0-0.6,0.5-1.1,1.1-1.1c0,0,0,0,0,0c0.6,0,1.1,0.5,1.1,1.1l0,0.3
			C33,35.5,32.5,36,31.9,36C31.9,36,31.9,36,31.9,36z"/>
	</g>
	<g>
		<path class="st7" d="M63.1,13.4c0-4.7-3.3-8.7-7.9-9.6c-0.5-0.1-1.1,0.2-1.2,0.7c-0.8,2.9-3.6,4.9-6.6,4.9l-18.6,0
			c-1.2,0-2.3,0.8-2.6,1.9l-0.8,0c-2.3,0-4.4,0.9-6,2.5s-2.5,3.8-2.5,6l0,6.6c0,0.6,0.5,1.1,1.1,1.1c0,0,0,0,0,0l4.1,0
			c3.4,0,6.6-1.9,8.3-4.8c1.8,1.4,4,2.1,6.3,2.1c0,0,0,0,0,0l16.3,0c5.6,0,10.2-4.6,10.2-10.2L63.1,13.4z"/>
	</g>
	<path class="st8" d="M63.1,13.4c0-4.7-3.3-8.7-7.9-9.6c-0.5-0.1-1.1,0.2-1.2,0.7c0,0,0,0.1,0,0.1c2.9,1.6,4.9,5,4.9,8.8l0,1.2
		c0,5.6-4.1,10.2-9.3,10.2l-13.2,0c0.1,0,0.1,0,0.2,0c0,0,0,0,0,0l16.3,0c5.6,0,10.2-4.6,10.2-10.2L63.1,13.4z"/>
</g>
</svg>
